<svg xmlns="http://www.w3.org/2000/svg" version="1.1" xmlns:xlink="http://www.w3.org/1999/xlink" width="512" height="512" x="0" y="0" viewBox="0 0 511.998 511.998" style="enable-background:new 0 0 512 512" xml:space="preserve" class=""><g><path fill="#ffcbbe" d="M102.943 284.386 59.871 406.857l-15.985 15.985 70.047 70.047 93.948-93.948 68.909-123.15-116.355-23.927c-24.596-5.062-49.16 8.833-57.492 32.522z" opacity="1" data-original="#ffcbbe"></path><path fill="#eaac9d" d="m168.339 372.39 2.82 2.82 72.025-72.025-23.726-23.726-51.119 51.119c-11.546 11.546-11.546 30.266 0 41.812z" opacity="1" data-original="#eaac9d"></path><ellipse cx="305.627" cy="169.982" fill="#6581fc" rx="157.716" ry="167.11" transform="rotate(-45 305.62 170.05)" opacity="1" data-original="#80cb8e" class=""></ellipse><path fill="#4364f7" d="M334.242 331.307c-48.92 5.88-101.21-10.89-140.14-49.81-65.26-65.26-68.23-168.09-6.64-229.68 34.41-34.41 81.68-48.67 128.09-43.17-33.11 3.97-64.69 18.31-89.55 43.17-61.6 61.59-58.62 164.42 6.64 229.68 28.81 28.81 64.93 45.47 101.6 49.81z" opacity="1" data-original="#6ec17d" class=""></path><path fill="#f9f6f9" d="M301.342 272.038a19.997 19.997 0 0 1-15.499-7.363l-74.822-91.781c-6.979-8.561-5.697-21.159 2.864-28.139 8.561-6.979 21.159-5.697 28.139 2.865l55.602 68.205 64.784-124.65c5.094-9.801 17.168-13.616 26.97-8.523 9.801 5.094 13.617 17.169 8.522 26.97L319.09 261.261a19.998 19.998 0 0 1-17.748 10.777z" opacity="1" data-original="#f9f6f9" class=""></path><path fill="#ffcbbe" d="M275.917 258.591 77.776 456.732l47.768 47.768 26.16-26.16 23.783.441c46.325.849 85.472-34.119 89.846-80.231l2.421-25.591 61.265-61.265c7.33-7.33 10.991-16.936 10.999-26.543 0-9.615-3.669-19.23-10.999-26.56-14.66-14.66-38.442-14.66-53.102 0z" opacity="1" data-original="#ffcbbe"></path><path fill="#eaac9d" d="M250.631 357.908C245 417.389 194.496 462.491 134.76 461.395l-26.16 26.16 16.945 16.945 26.16-26.16 23.783.441c46.325.849 85.472-34.119 89.846-80.231l2.421-25.591 61.265-61.265c7.33-7.33 10.991-16.936 10.999-26.543 0-9.615-3.661-19.221-10.999-26.56a37.565 37.565 0 0 0-9.844-7.092 37.624 37.624 0 0 1 3.89 16.699c0 9.615-3.66 19.221-10.991 26.551l-61.265 61.265z" opacity="1" data-original="#eaac9d"></path><path d="M475.535 174.461c-1.311-45.301-20.163-88.381-53.086-121.303C389.527 20.236 346.448 1.383 301.147.073c-45.472-1.312-87.725 15.179-118.992 46.446-35.109 35.109-51.568 84.488-45.158 135.478a7.5 7.5 0 0 0 14.883-1.871c-5.828-46.359 9.073-91.191 40.882-123 28.316-28.317 66.638-43.253 107.952-42.059 41.459 1.199 80.926 18.494 111.13 48.699s47.499 69.671 48.699 111.13c1.195 41.297-13.742 79.635-42.059 107.952-24.607 24.606-56.673 39.06-91.688 41.672l7.525-7.526c8.497-8.497 13.184-19.803 13.197-31.843 0-12.038-4.686-23.353-13.197-31.863a46.075 46.075 0 0 0-1.764-1.668l71.993-138.535c3.392-6.518 4.04-13.965 1.826-20.97-2.213-7.001-7.02-12.724-13.542-16.118-13.452-6.987-30.087-1.727-37.081 11.727l-59.52 114.518-48.393-59.359c-9.578-11.746-26.933-13.517-38.692-3.943-5.692 4.642-9.238 11.222-9.984 18.528-.747 7.31 1.399 14.471 6.04 20.163l63.357 77.71-42.56 42.56a170.413 170.413 0 0 1-26.591-21.702c-8.027-8.027-15.235-16.826-21.425-26.156-8.663-13.045-15.398-27.162-20.019-41.956a7.499 7.499 0 0 0-9.395-4.923 7.5 7.5 0 0 0-4.923 9.395c3.36 10.757 7.764 21.172 13.107 31.139-26.379-2.94-51.947 12.78-60.883 38.206L53.36 402.761l-14.774 14.774a7.5 7.5 0 0 0 0 10.606l81.659 81.659c1.464 1.465 3.384 2.197 5.303 2.197s3.839-.732 5.303-2.197l23.906-23.905 20.593.381c.593.011 1.182.016 1.773.016 36.985-.002 70.931-21.395 86.83-54.888a7.5 7.5 0 0 0-13.551-6.433c-13.632 28.718-42.989 46.904-74.775 46.307l-23.78-.44a7.446 7.446 0 0 0-5.442 2.196l-20.857 20.856-71.053-71.053 10.677-10.677a7.511 7.511 0 0 0 1.772-2.814l43.08-122.471c7.047-20.051 28.074-31.945 48.899-27.671l8.329 1.717a185.4 185.4 0 0 0 21.552 25.88 185.583 185.583 0 0 0 26.393 21.9l-30.503 30.503a7.5 7.5 0 0 0 0 10.606 7.5 7.5 0 0 0 10.606 0l85.919-85.919c5.674-5.674 13.219-8.798 21.246-8.798 8.028 0 15.573 3.125 21.247 8.799 5.677 5.676 8.803 13.225 8.803 21.248-.009 8.032-3.135 15.577-8.803 21.245l-61.26 61.27a7.502 7.502 0 0 0-2.163 4.594l-2.43 25.59-.012.133c-.01.131-.026.258-.042.388l-.012.104c-.471 4.114 2.486 7.783 6.6 8.256.287.033.572.049.854.049 3.763 0 7.017-2.863 7.458-6.689.034-.295.066-.583.09-.88l2.169-22.847 36.433-36.438c1.282.028 2.563.045 3.841.045 43.503-.002 83.705-16.366 113.847-46.507 31.271-31.266 47.766-73.525 46.45-118.992zm-195.28 71.482-63.424-77.792a12.41 12.41 0 0 1-2.744-9.161 12.43 12.43 0 0 1 4.537-8.424c5.345-4.353 13.237-3.546 17.591 1.793l55.6 68.199a7.498 7.498 0 0 0 12.468-1.28l64.78-124.638c3.179-6.117 10.742-8.51 16.852-5.336a12.439 12.439 0 0 1 6.159 7.33 12.405 12.405 0 0 1-.831 9.529l-71.4 137.394a44.978 44.978 0 0 0-17.375-3.461c-7.917-.001-15.515 2.038-22.213 5.847z" fill="#0000c9" opacity="1" data-original="#000000" class=""></path></g></svg>