<svg width="30" height="27" viewBox="0 0 30 27" fill="none" xmlns="http://www.w3.org/2000/svg">
<path fill-rule="evenodd" clip-rule="evenodd" d="M11.839 0C12.8261 0 13.8117 0.3795 14.7988 1.14C15.7859 0.3795 16.7715 0 17.7586 0H26.6379C27.4228 0 28.1757 0.31607 28.7307 0.87868C29.2858 1.44129 29.5976 2.20435 29.5976 3V22.5C29.5976 23.2956 29.2858 24.0587 28.7307 24.6213C28.1757 25.1839 27.4228 25.5 26.6379 25.5H16.2787C16.2787 26.328 15.6127 27 14.7988 27C13.9849 27 13.3189 26.325 13.3189 25.5H2.95976C2.17478 25.5 1.42196 25.1839 0.866894 24.6213C0.311831 24.0587 0 23.2956 0 22.5V3C0 2.20435 0.311831 1.44129 0.866894 0.87868C1.42196 0.31607 2.17478 0 2.95976 0H11.839ZM11.839 3H2.95976V22.5H13.3189V4.5C13.3189 3.675 12.653 3 11.839 3ZM26.6379 3H17.7586C16.9446 3 16.2787 3.675 16.2787 4.5V22.5H26.6379V3Z" fill="#2949FF"/>
</svg>
