<svg width="72" height="60" viewBox="0 0 72 60" fill="none" xmlns="http://www.w3.org/2000/svg">
<path d="M72 30C71.9968 26.8196 71.0935 23.7052 69.3947 21.017C67.6958 18.3289 65.2708 16.1771 62.4003 14.8105V14.3933C62.3975 11.2996 61.3994 8.28902 59.5536 5.80694C57.7078 3.32487 55.1124 1.50319 52.1514 0.611452C49.1904 -0.280288 46.0211 -0.194714 43.1125 0.85551C40.2039 1.90573 37.7104 3.86481 36.0011 6.44288C34.2918 3.86481 31.7984 1.90573 28.8898 0.85551C25.9812 -0.194714 22.8119 -0.280288 19.8509 0.611452C16.8899 1.50319 14.2945 3.32487 12.4487 5.80694C10.6028 8.28902 9.60472 11.2996 9.60195 14.3933V14.8105C6.72905 16.1733 4.3017 18.3238 2.60199 21.0121C0.902282 23.7004 0 26.816 0 29.997C0 33.178 0.902282 36.2936 2.60199 38.9819C4.3017 41.6702 6.72905 43.8207 9.60195 45.1835V45.6067C9.60472 48.7004 10.6028 51.711 12.4487 54.1931C14.2945 56.6751 16.8899 58.4968 19.8509 59.3885C22.8119 60.2803 25.9812 60.1947 28.8898 59.1445C31.7984 58.0943 34.2918 56.1352 36.0011 53.5571C37.7104 56.1352 40.2039 58.0943 43.1125 59.1445C46.0211 60.1947 49.1904 60.2803 52.1514 59.3885C55.1124 58.4968 57.7078 56.6751 59.5536 54.1931C61.3994 51.711 62.3975 48.7004 62.4003 45.6067V45.1835C65.2703 43.818 67.6951 41.6672 69.394 38.9801C71.0929 36.293 71.9964 33.1795 72 30ZM24.0015 55.2108C21.6344 55.2105 19.3509 54.3352 17.5896 52.7531C15.8282 51.171 14.7133 48.9936 14.4588 46.6391C15.2349 46.7498 16.0178 46.806 16.8017 46.8072H19.2017C19.8382 46.8072 20.4486 46.5543 20.8987 46.104C21.3487 45.6537 21.6016 45.043 21.6016 44.4062C21.6016 43.7694 21.3487 43.1587 20.8987 42.7084C20.4486 42.2581 19.8382 42.0052 19.2017 42.0052H16.8017C13.9685 42.0085 11.2255 41.0087 9.0583 39.1829C6.89113 37.357 5.43961 34.8229 4.96073 32.0292C4.48185 29.2354 5.00649 26.3622 6.44178 23.9183C7.87706 21.4744 10.1304 19.6174 12.8028 18.6761C13.2705 18.5105 13.6753 18.204 13.9616 17.7987C14.2479 17.3935 14.4017 16.9094 14.4018 16.4132V14.3933C14.4018 11.8461 15.4132 9.40327 17.2135 7.60215C19.0138 5.80103 21.4555 4.78917 24.0015 4.78917C26.5475 4.78917 28.9892 5.80103 30.7895 7.60215C32.5898 9.40327 33.6012 11.8461 33.6012 14.3933V34.8801C30.9658 32.5087 27.546 31.1979 24.0015 31.2005C23.365 31.2005 22.7546 31.4535 22.3045 31.9038C21.8544 32.354 21.6016 32.9648 21.6016 33.6015C21.6016 34.2383 21.8544 34.8491 22.3045 35.2993C22.7546 35.7496 23.365 36.0026 24.0015 36.0026C26.5475 36.0026 28.9892 37.0144 30.7895 38.8156C32.5898 40.6167 33.6012 43.0595 33.6012 45.6067C33.6012 48.1539 32.5898 50.5967 30.7895 52.3978C28.9892 54.199 26.5475 55.2108 24.0015 55.2108ZM55.2005 42.0052H52.8006C52.1641 42.0052 51.5537 42.2581 51.1036 42.7084C50.6535 43.1587 50.4007 43.7694 50.4007 44.4062C50.4007 45.043 50.6535 45.6537 51.1036 46.104C51.5537 46.5543 52.1641 46.8072 52.8006 46.8072H55.2005C55.9845 46.806 56.7674 46.7498 57.5435 46.6391C57.3441 48.4839 56.6148 50.2315 55.4438 51.6704C54.2728 53.1094 52.7103 54.1781 50.9451 54.7475C49.1798 55.3169 47.2876 55.3625 45.497 54.8788C43.7064 54.3951 42.0942 53.4028 40.8554 52.0219C39.6165 50.6411 38.804 48.9307 38.5161 47.0976C38.2281 45.2646 38.4771 43.3873 39.233 41.6929C39.9888 39.9984 41.219 38.5592 42.775 37.5494C44.331 36.5396 46.1461 36.0023 48.0008 36.0026C48.6373 36.0026 49.2477 35.7496 49.6978 35.2993C50.1478 34.8491 50.4007 34.2383 50.4007 33.6015C50.4007 32.9648 50.1478 32.354 49.6978 31.9038C49.2477 31.4535 48.6373 31.2005 48.0008 31.2005C44.4563 31.1979 41.0364 32.5087 38.4011 34.8801V14.3933C38.4011 11.8461 39.4124 9.40327 41.2127 7.60215C43.013 5.80103 45.4548 4.78917 48.0008 4.78917C50.5467 4.78917 52.9885 5.80103 54.7888 7.60215C56.5891 9.40327 57.6005 11.8461 57.6005 14.3933V16.4132C57.6005 16.9094 57.7543 17.3935 58.0406 17.7987C58.327 18.204 58.7318 18.5105 59.1994 18.6761C61.8719 19.6174 64.1252 21.4744 65.5605 23.9183C66.9958 26.3622 67.5204 29.2354 67.0415 32.0292C66.5626 34.8229 65.1111 37.357 62.9439 39.1829C60.7768 41.0087 58.0338 42.0085 55.2005 42.0052ZM60.0004 26.3985C60.0004 27.0352 59.7475 27.646 59.2975 28.0962C58.8474 28.5465 58.2369 28.7995 57.6005 28.7995H56.4005C53.5362 28.7995 50.7893 27.6611 48.764 25.6349C46.7386 23.6086 45.6008 20.8604 45.6008 17.9948V16.7943C45.6008 16.1575 45.8537 15.5468 46.3037 15.0965C46.7538 14.6463 47.3643 14.3933 48.0008 14.3933C48.6373 14.3933 49.2477 14.6463 49.6978 15.0965C50.1478 15.5468 50.4007 16.1575 50.4007 16.7943V17.9948C50.4007 19.5868 51.0328 21.1136 52.158 22.2393C53.2832 23.365 54.8092 23.9974 56.4005 23.9974H57.6005C58.2369 23.9974 58.8474 24.2504 59.2975 24.7007C59.7475 25.1509 60.0004 25.7617 60.0004 26.3985ZM15.6018 28.7995H14.4018C13.7653 28.7995 13.1549 28.5465 12.7048 28.0962C12.2547 27.646 12.0019 27.0352 12.0019 26.3985C12.0019 25.7617 12.2547 25.1509 12.7048 24.7007C13.1549 24.2504 13.7653 23.9974 14.4018 23.9974H15.6018C17.193 23.9974 18.7191 23.365 19.8443 22.2393C20.9695 21.1136 21.6016 19.5868 21.6016 17.9948V16.7943C21.6016 16.1575 21.8544 15.5468 22.3045 15.0965C22.7546 14.6463 23.365 14.3933 24.0015 14.3933C24.638 14.3933 25.2484 14.6463 25.6985 15.0965C26.1486 15.5468 26.4014 16.1575 26.4014 16.7943V17.9948C26.4014 20.8604 25.2636 23.6086 23.2383 25.6349C21.2129 27.6611 18.466 28.7995 15.6018 28.7995Z" fill="#2949FF"/>
</svg>
