<svg xmlns="http://www.w3.org/2000/svg" version="1.1" xmlns:xlink="http://www.w3.org/1999/xlink" width="512" height="512" x="0" y="0" viewBox="0 0 32 32" style="enable-background:new 0 0 512 512" xml:space="preserve" class=""><g><path d="M2 9a1 1 0 0 1 1-1h12a1 1 0 1 1 0 2H3a1 1 0 0 1-1-1zm27 13h-6.184A2.995 2.995 0 0 0 20 20c-1.654 0-3 1.346-3 3s1.346 3 3 3a2.995 2.995 0 0 0 2.816-2H29a1 1 0 1 0 0-2zm-14 0H3a1 1 0 1 0 0 2h12a1 1 0 1 0 0-2zm14-7H15a1 1 0 1 0 0 2h14a1 1 0 1 0 0-2zM3 17h4.184A2.995 2.995 0 0 0 10 19c1.654 0 3-1.346 3-3s-1.346-3-3-3a2.995 2.995 0 0 0-2.816 2H3a1 1 0 1 0 0 2zm17-5a2.995 2.995 0 0 0 2.816-2H29a1 1 0 1 0 0-2h-6.184A2.995 2.995 0 0 0 20 6c-1.654 0-3 1.346-3 3s1.346 3 3 3z" fill="#6581fc" opacity="1" data-original="#000000" class=""></path></g></svg>