<svg width="60" height="60" viewBox="0 0 60 60" fill="none" xmlns="http://www.w3.org/2000/svg">
<path d="M20.9989 38.751V40.5C20.9989 44.0804 22.4212 47.5142 24.9528 50.0459C27.4844 52.5777 30.918 54 34.4983 54C38.0785 54 41.5121 52.5777 44.0437 50.0459C46.5753 47.5142 47.9976 44.0804 47.9976 40.5V35.49C45.9952 34.7823 44.3075 33.3894 43.2327 31.5576C42.158 29.7258 41.7654 27.5729 42.1244 25.4796C42.4835 23.3863 43.5709 21.4874 45.1946 20.1184C46.8183 18.7494 48.8737 17.9985 50.9974 17.9985C53.1212 17.9985 55.1766 18.7494 56.8003 20.1184C58.424 21.4874 59.5114 23.3863 59.8704 25.4796C60.2294 27.5729 59.8369 29.7258 58.7621 31.5576C57.6874 33.3894 55.9997 34.7823 53.9973 35.49V40.5C53.9973 45.6717 51.9429 50.6316 48.2861 54.2886C44.6294 57.9455 39.6697 60 34.4983 60C29.3268 60 24.3671 57.9455 20.7104 54.2886C17.0536 50.6316 14.9992 45.6717 14.9992 40.5V38.751C10.8052 38.0408 6.99809 35.8687 4.25258 32.6195C1.50708 29.3703 0.00054561 25.2539 0 21L0 6C0 4.4087 0.632109 2.88258 1.75727 1.75736C2.88243 0.632141 4.40848 0 5.9997 0L8.99955 0C9.79516 0 10.5582 0.316071 11.1208 0.87868C11.6833 1.44129 11.9994 2.20435 11.9994 3C11.9994 3.79565 11.6833 4.55871 11.1208 5.12132C10.5582 5.68393 9.79516 6 8.99955 6H5.9997V21C5.9997 24.1826 7.26392 27.2348 9.51424 29.4853C11.7646 31.7357 14.8167 33 17.9991 33C21.1815 33 24.2336 31.7357 26.4839 29.4853C28.7343 27.2348 29.9985 24.1826 29.9985 21V6H26.9986C26.203 6 25.44 5.68393 24.8774 5.12132C24.3148 4.55871 23.9988 3.79565 23.9988 3C23.9988 2.20435 24.3148 1.44129 24.8774 0.87868C25.44 0.316071 26.203 0 26.9986 0L29.9985 0C31.5897 0 33.1158 0.632141 34.2409 1.75736C35.3661 2.88258 35.9982 4.4087 35.9982 6V21C35.9976 25.2539 34.4911 29.3703 31.7456 32.6195C29.0001 35.8687 25.1929 38.0408 20.9989 38.751ZM50.9974 30C51.793 30 52.5561 29.6839 53.1186 29.1213C53.6812 28.5587 53.9973 27.7956 53.9973 27C53.9973 26.2044 53.6812 25.4413 53.1186 24.8787C52.5561 24.3161 51.793 24 50.9974 24C50.2018 24 49.4388 24.3161 48.8762 24.8787C48.3136 25.4413 47.9976 26.2044 47.9976 27C47.9976 27.7956 48.3136 28.5587 48.8762 29.1213C49.4388 29.6839 50.2018 30 50.9974 30Z" fill="#2949FF"/>
</svg>
