<svg xmlns="http://www.w3.org/2000/svg" version="1.1" xmlns:xlink="http://www.w3.org/1999/xlink" width="512" height="512" x="0" y="0" viewBox="0 0 511.995 511.995" style="enable-background:new 0 0 512 512" xml:space="preserve" class=""><g><path d="M470.413 39.635h-14.374l-20.273 40.586v89.802l19.273 25.866 15.373 5.476c21.024-20.521 34.082-49.166 34.082-80.865s-13.058-60.344-34.081-80.865z" style="" fill="#738aef" data-original="#ffe02f" class="" opacity="1"></path><path d="M436.33 120.5c0-31.699 13.058-60.344 34.082-80.865C450.046 19.755 422.204 7.5 391.495 7.5a113.06 113.06 0 0 0-30.665 4.214v217.573a113.093 113.093 0 0 0 30.665 4.214c30.709 0 58.551-12.255 78.918-32.135-21.025-20.522-34.083-49.167-34.083-80.866z" style="" fill="#617cf3" data-original="#fbc700" class="" opacity="1"></path><path d="M502.337 310.506c-9.802-20.47-32.364-10.794-34.258-10.085l-91.796 27.157c-1.711.506-3.402-.903-3.172-2.672.784-6.038.185-17.63-14.117-23.338-55.033-21.969-61.596-25.685-75.523-25.906l-.002-.002c-24.275.081-37.342.229-47.958 2.058l-11.97 5.804-7.75 33.25 2.75 27.5 18.75 30 21.046 7.337c9.312.01 18.238 1.508 26.214 4.69l35.514 14.178c7.763 2.676 25.596 6.842 44.102-2.643l.016-.007 123.984-54.843c3.751-1.924 22.628-13.249 14.17-32.478z" style="" fill="#ffcebe" data-original="#ffcebe" class=""></path><path d="M221.136 320.041c0-15.929 5.366-30.597 14.373-42.322-8.213 1.415-14.96 3.837-24.293 8.014a190.859 190.859 0 0 0-31.785 18.08 69.785 69.785 0 0 1-16.699 8.655l-2.026 7.887 32 73 8.588 3.188 25.733-9.77c10.419-3.396 21.096-5.177 31.309-5.166-22.114-11.643-37.2-34.837-37.2-61.566z" style="" fill="#ffb1a0" data-original="#ffb1a0" class=""></path><path d="m183.289 379.523 4.42-6.75v-5.846l-27.471-59.896c-2.896-6.313-10.361-9.084-16.674-6.188l-35.017 16.06-3.508 10.639 33.173 71.276 45.077-19.295z" style="" fill="#dbedff" data-original="#dbedff" class=""></path><path d="m206.606 408.127-18.896-41.2c-.936 4.245-3.766 8.021-8.022 9.972l-39.972 18.333-4.175-2.153 19.832 42.61 10.028 5.172 35.017-16.06c6.313-2.895 9.083-10.361 6.188-16.674z" style="" fill="#b5dcff" data-original="#b5dcff" class=""></path><path d="m55.206 440.862 9-1.778 76.369-35.189 3.527-3.934-.258-6.101-41.745-91.018c-2.629-5.733-9.409-8.249-15.142-5.62l-72.794 33.387c-5.733 2.629-8.249 9.409-5.62 15.142l41.991 91.554 4.672 3.557z" style="" fill="#6581fc" data-original="#bf7fe3" class="" opacity="1"></path><path d="m171.85 454.924-28.007-61.064c-.452 3.986-2.906 7.646-6.818 9.44l-75.469 34.614c-3.686 1.691-7.787 1.326-11.022-.609l27.761 60.528c2.629 5.733 9.409 8.249 15.142 5.619l72.794-33.387c5.733-2.629 8.249-9.408 5.619-15.141z" style="" fill="#4949fc" data-original="#b166db" class="" opacity="1"></path><path d="M356.728 10.648h-18.102l-45.659 28.987-21.429 34.888-8 40.5v23.046l14.283 41.954 24.217 29.5 30.23 17 24.459 3.829c49.59-11.949 86.437-56.594 86.437-109.852.001-53.258-36.846-97.903-86.436-109.852z" style="" fill="#738aef" data-original="#ffe02f" class="" opacity="1"></path><path d="M270.291 120.5c0-53.258 36.847-97.903 86.437-109.852A113.263 113.263 0 0 0 330.165 7.5c-62.408 0-113 50.592-113 113s50.592 113 113 113c9.15 0 18.043-1.095 26.563-3.148-49.59-11.949-86.437-56.594-86.437-109.852z" style="" fill="#617cf3" data-original="#fbc700" class="" opacity="1"></path><path d="M372.293 328.759s-4.812 16.282-21.317 12.239c-16.504-4.043-55.593-13.456-55.593-13.456" style="stroke-width:15;stroke-linecap:round;stroke-linejoin:round;stroke-miterlimit:10;" fill="none" stroke="#0000c9" stroke-width="15" stroke-linecap="round" stroke-linejoin="round" stroke-miterlimit="10" data-original="#000000" class="" opacity="1"></path><path d="M372.293 328.759s-4.812 16.282-21.317 12.239c-16.504-4.043-55.593-13.456-55.593-13.456M171.851 454.924l-69.752-152.082c-2.629-5.733-9.409-8.249-15.142-5.62l-72.794 33.387c-5.733 2.629-8.249 9.409-5.62 15.142l69.752 152.082c2.629 5.733 9.409 8.249 15.142 5.62l72.794-33.387c5.733-2.63 8.249-9.409 5.62-15.142z" style="stroke-width:15;stroke-linecap:round;stroke-linejoin:round;stroke-miterlimit:10;" fill="none" stroke="#0000c9" stroke-width="15" stroke-linecap="round" stroke-linejoin="round" stroke-miterlimit="10" data-original="#000000" class="" opacity="1"></path><path d="m206.606 408.127-46.367-101.096c-2.896-6.313-10.361-9.084-16.674-6.188l-35.017 16.06 56.853 123.958 35.017-16.06c6.313-2.895 9.084-10.36 6.188-16.674zM358.2 84.897s-11.272-11.705-26.445-11.705-26.228 11.055-26.228 22.435 14.306 20.484 32.406 25.253 21.929 14.126 21.929 24.097-8.815 22.832-29.479 22.832c-20.665 0-29.913-15.029-29.913-15.029M330.165 55.633v12.716M330.165 172.651v12.716" style="stroke-width:15;stroke-linecap:round;stroke-linejoin:round;stroke-miterlimit:10;" fill="none" stroke="#0000c9" stroke-width="15" stroke-linecap="round" stroke-linejoin="round" stroke-miterlimit="10" data-original="#000000" class="" opacity="1"></path><circle cx="330.165" cy="120.5" r="113" style="stroke-width:15;stroke-linecap:round;stroke-linejoin:round;stroke-miterlimit:10;" fill="none" stroke="#0000c9" stroke-width="15" stroke-linecap="round" stroke-linejoin="round" stroke-miterlimit="10" data-original="#000000" class="" opacity="1"></circle><path d="m444.031 362.506 44.133-19.521c3.754-1.925 22.63-13.25 14.172-32.479-9.802-20.47-32.363-10.794-34.258-10.085l-95.786 28.338s6.557-19.265-13.3-27.191c-55.033-21.969-61.596-25.685-75.523-25.906l-.002-.002c-43.055.144-50.855.495-72.252 10.072a190.859 190.859 0 0 0-31.785 18.08 69.785 69.785 0 0 1-16.699 8.655l38.561 84.076 25.733-9.77c19.918-6.492 40.799-7.149 57.523-.475l35.515 14.178c7.763 2.676 25.596 6.842 44.102-2.643l.016-.007 47.842-21.162M460.756 31.215C441.625 16.354 417.595 7.5 391.495 7.5a113.06 113.06 0 0 0-30.665 4.214c47.507 13.364 82.335 57.007 82.335 108.786s-34.828 95.422-82.335 108.786a113.093 113.093 0 0 0 30.665 4.214c62.408 0 113-50.592 113-113 0-23.673-7.285-45.643-19.728-63.799" style="stroke-width:15;stroke-linecap:round;stroke-linejoin:round;stroke-miterlimit:10;" fill="none" stroke="#0000c9" stroke-width="15" stroke-linecap="round" stroke-linejoin="round" stroke-miterlimit="10" data-original="#000000" class="" opacity="1"></path></g></svg>