<svg width="46" height="44" viewBox="0 0 46 44" fill="none" xmlns="http://www.w3.org/2000/svg">
<path d="M44.7899 7.12689L23.5593 0.0902869C23.1961 -0.0300956 22.8035 -0.0300956 22.4403 0.0902869L1.2097 7.12689C0.857417 7.24366 0.551016 7.46769 0.333903 7.76723C0.11679 8.06678 -2.75163e-05 8.42666 4.86171e-09 8.79589V26.3874C4.86171e-09 26.854 0.186399 27.3014 0.518191 27.6313C0.849983 27.9612 1.29999 28.1466 1.76922 28.1466C2.23844 28.1466 2.68845 27.9612 3.02024 27.6313C3.35203 27.3014 3.53843 26.854 3.53843 26.3874V11.2367L10.9669 13.6973C8.99327 16.8678 8.36566 20.6874 9.22189 24.3176C10.0781 27.9477 12.3482 31.0916 15.5337 33.059C11.553 34.6114 8.11185 37.4195 5.59514 41.2588C5.46426 41.4523 5.37334 41.6696 5.32769 41.8983C5.28203 42.127 5.28254 42.3624 5.32919 42.5908C5.37584 42.8193 5.4677 43.0363 5.59942 43.2292C5.73115 43.422 5.90012 43.5869 6.0965 43.7143C6.29289 43.8417 6.51277 43.9289 6.74338 43.9711C6.97399 44.0132 7.21072 44.0093 7.43981 43.9596C7.6689 43.91 7.88578 43.8156 8.07784 43.6818C8.2699 43.5481 8.43331 43.3778 8.55858 43.1807C11.8913 38.0968 17.1548 35.1832 22.9998 35.1832C28.8448 35.1832 34.1083 38.0968 37.441 43.1807C37.7005 43.5642 38.1014 43.8307 38.5569 43.9227C39.0125 44.0146 39.4861 43.9246 39.8755 43.6721C40.2648 43.4196 40.5386 43.0249 40.6375 42.5733C40.7365 42.1217 40.6528 41.6495 40.4045 41.2588C37.8878 37.4195 34.4334 34.6114 30.4659 33.059C33.6483 31.0917 35.9163 27.9498 36.7724 24.3223C37.6285 20.6948 37.0028 16.8778 35.0327 13.7083L44.7899 10.4759C45.1423 10.3592 45.4487 10.1352 45.6659 9.83563C45.8831 9.53608 46 9.17616 46 8.80688C46 8.4376 45.8831 8.07769 45.6659 7.77814C45.4487 7.47859 45.1423 7.25459 44.7899 7.13789V7.12689ZM33.6151 21.1099C33.6156 22.7786 33.2181 24.4236 32.4554 25.91C31.6927 27.3964 30.5864 28.6818 29.2273 29.6607C27.8682 30.6397 26.295 31.2842 24.6369 31.5416C22.9787 31.7989 21.2829 31.6617 19.6884 31.1412C18.0939 30.6206 16.6463 29.7316 15.4642 28.547C14.2822 27.3625 13.3995 25.9161 12.8885 24.3267C12.3776 22.7372 12.2529 21.05 12.5247 19.4033C12.7965 17.7567 13.4571 16.1976 14.4523 14.854L22.4403 17.4927C22.8035 17.6131 23.1961 17.6131 23.5593 17.4927L31.5473 14.854C32.8913 16.666 33.616 18.8585 33.6151 21.1099ZM22.9998 13.9788L7.36436 8.79589L22.9998 3.61299L38.6352 8.79589L22.9998 13.9788Z" fill="white"/>
</svg>
