<svg width="29" height="26" viewBox="0 0 29 26" fill="none" xmlns="http://www.w3.org/2000/svg">
<path d="M29 13C28.9987 11.719 28.6349 10.4645 27.9506 9.38182C27.2664 8.29911 26.2896 7.43238 25.1335 6.88196V6.71393C25.1323 5.46786 24.7303 4.25526 23.9869 3.25553C23.2434 2.25581 22.198 1.52208 21.0054 1.16291C19.8128 0.803732 18.5363 0.838199 17.3647 1.26121C16.1932 1.68421 15.1889 2.47329 14.5005 3.51167C13.812 2.47329 12.8077 1.68421 11.6362 1.26121C10.4646 0.838199 9.18812 0.803732 7.99549 1.16291C6.80287 1.52208 5.75749 2.25581 5.01404 3.25553C4.27059 4.25526 3.86857 5.46786 3.86745 6.71393V6.88196C2.71031 7.43088 1.73263 8.29706 1.04802 9.37984C0.363419 10.4626 0 11.7175 0 12.9988C0 14.28 0.363419 15.5349 1.04802 16.6177C1.73263 17.7004 2.71031 18.5666 3.86745 19.1155V19.286C3.86857 20.5321 4.27059 21.7447 5.01404 22.7444C5.75749 23.7441 6.80287 24.4778 7.99549 24.837C9.18812 25.1962 10.4646 25.1617 11.6362 24.7387C12.8077 24.3157 13.812 23.5266 14.5005 22.4882C15.1889 23.5266 16.1932 24.3157 17.3647 24.7387C18.5363 25.1617 19.8128 25.1962 21.0054 24.837C22.198 24.4778 23.2434 23.7441 23.9869 22.7444C24.7303 21.7447 25.1323 20.5321 25.1335 19.286V19.1155C26.2894 18.5655 27.2661 17.6992 27.9504 16.6169C28.6346 15.5346 28.9986 14.2806 29 13ZM9.66727 23.1543C8.71386 23.1542 7.79412 22.8016 7.08469 22.1644C6.37526 21.5272 5.92617 20.6502 5.82368 19.7018C6.13628 19.7464 6.45161 19.769 6.76736 19.7695H7.734C7.99037 19.7695 8.23623 19.6676 8.41751 19.4863C8.59879 19.3049 8.70063 19.0589 8.70063 18.8025C8.70063 18.546 8.59879 18.3 8.41751 18.1186C8.23623 17.9373 7.99037 17.8354 7.734 17.8354H6.76736C5.6262 17.8367 4.52137 17.434 3.64848 16.6986C2.77559 15.9632 2.19096 14.9425 1.99807 13.8173C1.80519 12.692 2.0165 11.5347 2.5946 10.5504C3.1727 9.56605 4.0803 8.81809 5.1567 8.43896C5.34504 8.37225 5.50809 8.24879 5.62342 8.08556C5.73875 7.92234 5.80069 7.72737 5.80072 7.52748V6.71393C5.80072 5.68798 6.20809 4.70406 6.93321 3.9786C7.65833 3.25315 8.6418 2.8456 9.66727 2.8456C10.6927 2.8456 11.6762 3.25315 12.4013 3.9786C13.1264 4.70406 13.5338 5.68798 13.5338 6.71393V14.9656C12.4723 14.0104 11.0949 13.4824 9.66727 13.4835C9.4109 13.4835 9.16503 13.5854 8.98376 13.7668C8.80248 13.9481 8.70063 14.1941 8.70063 14.4506C8.70063 14.7071 8.80248 14.9531 8.98376 15.1344C9.16503 15.3158 9.4109 15.4177 9.66727 15.4177C10.6927 15.4177 11.6762 15.8252 12.4013 16.5507C13.1264 17.2761 13.5338 18.26 13.5338 19.286C13.5338 20.3119 13.1264 21.2959 12.4013 22.0213C11.6762 22.7468 10.6927 23.1543 9.66727 23.1543ZM22.2335 17.8354H21.2669C21.0105 17.8354 20.7647 17.9373 20.5834 18.1186C20.4021 18.3 20.3003 18.546 20.3003 18.8025C20.3003 19.0589 20.4021 19.3049 20.5834 19.4863C20.7647 19.6676 21.0105 19.7695 21.2669 19.7695H22.2335C22.5493 19.769 22.8646 19.7464 23.1772 19.7018C23.0969 20.4449 22.8032 21.1487 22.3315 21.7283C21.8599 22.3079 21.2305 22.7384 20.5195 22.9677C19.8085 23.197 19.0464 23.2154 18.3252 23.0206C17.604 22.8258 16.9546 22.4261 16.4556 21.8699C15.9566 21.3137 15.6294 20.6248 15.5134 19.8865C15.3974 19.1482 15.4977 18.3921 15.8022 17.7096C16.1066 17.0271 16.6021 16.4474 17.2288 16.0407C17.8555 15.634 18.5866 15.4176 19.3336 15.4177C19.59 15.4177 19.8359 15.3158 20.0172 15.1344C20.1984 14.9531 20.3003 14.7071 20.3003 14.4506C20.3003 14.1941 20.1984 13.9481 20.0172 13.7668C19.8359 13.5854 19.59 13.4835 19.3336 13.4835C17.906 13.4824 16.5286 14.0104 15.4671 14.9656V6.71393C15.4671 5.68798 15.8745 4.70406 16.5996 3.9786C17.3247 3.25315 18.3082 2.8456 19.3336 2.8456C20.3591 2.8456 21.3426 3.25315 22.0677 3.9786C22.7928 4.70406 23.2002 5.68798 23.2002 6.71393V7.52748C23.2002 7.72737 23.2622 7.92234 23.3775 8.08556C23.4928 8.24879 23.6559 8.37225 23.8442 8.43896C24.9206 8.81809 25.8282 9.56605 26.4063 10.5504C26.9844 11.5347 27.1957 12.692 27.0028 13.8173C26.81 14.9425 26.2253 15.9632 25.3524 16.6986C24.4795 17.434 23.3747 17.8367 22.2335 17.8354ZM24.1668 11.5493C24.1668 11.8058 24.065 12.0518 23.8837 12.2332C23.7024 12.4145 23.4565 12.5164 23.2002 12.5164H22.7169C21.5632 12.5164 20.4568 12.0579 19.641 11.2418C18.8253 10.4257 18.367 9.31874 18.367 8.16455V7.68101C18.367 7.42452 18.4688 7.17854 18.6501 6.99718C18.8314 6.81581 19.0773 6.71393 19.3336 6.71393C19.59 6.71393 19.8359 6.81581 20.0172 6.99718C20.1984 7.17854 20.3003 7.42452 20.3003 7.68101V8.16455C20.3003 8.80576 20.5549 9.42072 21.0081 9.87412C21.4613 10.3275 22.0759 10.5823 22.7169 10.5823H23.2002C23.4565 10.5823 23.7024 10.6841 23.8837 10.8655C24.065 11.0469 24.1668 11.2928 24.1668 11.5493ZM6.28404 12.5164H5.80072C5.54436 12.5164 5.29849 12.4145 5.11721 12.2332C4.93593 12.0518 4.83409 11.8058 4.83409 11.5493C4.83409 11.2928 4.93593 11.0469 5.11721 10.8655C5.29849 10.6841 5.54436 10.5823 5.80072 10.5823H6.28404C6.92496 10.5823 7.53963 10.3275 7.99283 9.87412C8.44603 9.42072 8.70063 8.80576 8.70063 8.16455V7.68101C8.70063 7.42452 8.80248 7.17854 8.98376 6.99718C9.16503 6.81581 9.4109 6.71393 9.66727 6.71393C9.92364 6.71393 10.1695 6.81581 10.3508 6.99718C10.5321 7.17854 10.6339 7.42452 10.6339 7.68101V8.16455C10.6339 9.31874 10.1756 10.4257 9.35986 11.2418C8.5441 12.0579 7.4377 12.5164 6.28404 12.5164Z" fill="#007EFF"/>
</svg>
