<svg width="30" height="40" viewBox="0 0 30 40" fill="none" xmlns="http://www.w3.org/2000/svg">
<path d="M14.6672 17.2845L12.5032 23.9438H5.50049L11.1658 28.0598L9.00049 34.7185L14.6672 30.6038L20.3325 34.7185L18.1672 28.0598L23.8325 23.9438H16.8298L14.6672 17.2845ZM16.5592 27.3645L17.7272 30.9618L14.6672 28.7378L11.6045 30.9618L12.7752 27.3645L9.71382 25.1405H13.4978L14.6672 21.5432L15.8365 25.1405H19.6192L16.5592 27.3645Z" fill="#007EFF"/>
<path d="M23.1044 16.346V10.5473C23.1044 10.3047 22.9718 10.1007 22.7838 9.974L29.3331 0H16.7764L14.6671 3.164L12.5578 0H-0.000244141L6.54842 9.97333C6.45177 10.0351 6.37194 10.1198 6.3161 10.22C6.26025 10.3202 6.23012 10.4327 6.22842 10.5473V16.346C3.24109 18.7913 1.33309 22.5053 1.33309 26.6667C1.33309 34.03 7.30309 40 14.6664 40C15.1204 40 15.5698 39.9767 16.0118 39.932C22.7431 39.258 27.9998 33.5767 27.9998 26.6667C27.9998 22.5053 26.0918 18.7913 23.1044 16.346ZM20.5504 0.666667H24.7691L18.8858 9.49267L16.7764 6.32867L20.5504 0.666667ZM20.9951 12.6567L21.6438 11.6847C21.6784 11.768 21.6984 11.8587 21.6984 11.954V14.7667C21.6969 14.9423 21.6257 15.1102 21.5004 15.2333C19.5004 14.0347 17.1678 13.3333 14.6664 13.3333C12.258 13.3339 9.89528 13.991 7.83242 15.234C7.70714 15.1106 7.63593 14.9425 7.63442 14.7667V11.954C7.63442 11.8587 7.65442 11.7673 7.68909 11.6847L8.33776 12.6573L20.9951 12.6567ZM4.56376 0.666667H8.78242L16.3318 11.99H12.1131L4.56376 0.666667ZM14.6664 38C8.40776 38 3.33309 32.926 3.33309 26.6667C3.33309 20.4073 8.40776 15.3333 14.6664 15.3333C20.9251 15.3333 25.9998 20.4073 25.9998 26.6667C25.9998 32.926 20.9251 38 14.6664 38Z" fill="#007EFF"/>
</svg>
