<svg width="29" height="29" viewBox="0 0 29 29" fill="none" xmlns="http://www.w3.org/2000/svg">
<path d="M14.5 0C22.5084 0 29 6.49165 29 14.5C29 22.5084 22.5084 29 14.5 29C6.49165 29 0 22.5084 0 14.5C0 6.49165 6.49165 0 14.5 0ZM14.5 2.9C11.4235 2.9 8.47298 4.12214 6.29756 6.29756C4.12214 8.47298 2.9 11.4235 2.9 14.5C2.9 17.5765 4.12214 20.527 6.29756 22.7024C8.47298 24.8779 11.4235 26.1 14.5 26.1C17.5765 26.1 20.527 24.8779 22.7024 22.7024C24.8779 20.527 26.1 17.5765 26.1 14.5C26.1 11.4235 24.8779 8.47298 22.7024 6.29756C20.527 4.12214 17.5765 2.9 14.5 2.9ZM14.5 5.8C14.8552 5.80005 15.1979 5.93044 15.4633 6.16644C15.7287 6.40244 15.8983 6.72764 15.9399 7.08035L15.95 7.25V13.8997L19.8752 17.8249C20.1352 18.0858 20.2862 18.4359 20.2974 18.8042C20.3087 19.1724 20.1793 19.5311 19.9357 19.8074C19.692 20.0837 19.3524 20.2569 18.9856 20.2919C18.6189 20.3268 18.2526 20.2208 17.9612 19.9955L17.8249 19.8752L13.4749 15.5252C13.2495 15.2996 13.1048 15.0061 13.0631 14.6899L13.05 14.5V7.25C13.05 6.86544 13.2028 6.49662 13.4747 6.2247C13.7466 5.95277 14.1154 5.8 14.5 5.8Z" fill="#007EFF"/>
</svg>
