<svg width="29" height="29" viewBox="0 0 29 29" fill="none" xmlns="http://www.w3.org/2000/svg">
<path d="M10.1495 18.7297V19.575C10.1495 21.3055 10.8369 22.9652 12.0605 24.1889C13.2841 25.4125 14.9437 26.1 16.6742 26.1C18.4046 26.1 20.0642 25.4125 21.2878 24.1889C22.5114 22.9652 23.1988 21.3055 23.1988 19.575V17.1535C22.231 16.8114 21.4153 16.1382 20.8958 15.2528C20.3764 14.3674 20.1866 13.3269 20.3601 12.3152C20.5337 11.3034 21.0593 10.3856 21.8441 9.72388C22.6288 9.06221 23.6223 8.69929 24.6488 8.69929C25.6752 8.69929 26.6687 9.06221 27.4535 9.72388C28.2382 10.3856 28.7638 11.3034 28.9374 12.3152C29.1109 13.3269 28.9212 14.3674 28.4017 15.2528C27.8822 16.1382 27.0665 16.8114 26.0987 17.1535V19.575C26.0987 22.0747 25.1057 24.472 23.3383 26.2395C21.5709 28.007 19.1737 29 16.6742 29C14.1746 29 11.7775 28.007 10.01 26.2395C8.24257 24.472 7.24963 22.0747 7.24963 19.575V18.7297C5.22253 18.3864 3.38241 17.3365 2.05542 15.7661C0.728423 14.1956 0.000263711 12.2061 0 10.15L0 2.9C0 2.13087 0.305519 1.39325 0.849348 0.84939C1.39318 0.305535 2.13076 0 2.89985 0L4.34978 0C4.73433 0 5.10312 0.152767 5.37503 0.424695C5.64695 0.696623 5.79971 1.06544 5.79971 1.45C5.79971 1.83456 5.64695 2.20338 5.37503 2.47531C5.10312 2.74723 4.73433 2.9 4.34978 2.9H2.89985V10.15C2.89985 11.6883 3.51089 13.1635 4.59855 14.2512C5.68621 15.3389 7.16138 15.95 8.69956 15.95C10.2377 15.95 11.7129 15.3389 12.8006 14.2512C13.8882 13.1635 14.4993 11.6883 14.4993 10.15V2.9H13.0493C12.6648 2.9 12.296 2.74723 12.0241 2.47531C11.7522 2.20338 11.5994 1.83456 11.5994 1.45C11.5994 1.06544 11.7522 0.696623 12.0241 0.424695C12.296 0.152767 12.6648 0 13.0493 0L14.4993 0C15.2684 0 16.0059 0.305535 16.5498 0.84939C17.0936 1.39325 17.3991 2.13087 17.3991 2.9V10.15C17.3989 12.2061 16.6707 14.1956 15.3437 15.7661C14.0167 17.3365 12.1766 18.3864 10.1495 18.7297ZM24.6488 14.5C25.0333 14.5 25.4021 14.3472 25.674 14.0753C25.9459 13.8034 26.0987 13.4346 26.0987 13.05C26.0987 12.6654 25.9459 12.2966 25.674 12.0247C25.4021 11.7528 25.0333 11.6 24.6488 11.6C24.2642 11.6 23.8954 11.7528 23.6235 12.0247C23.3516 12.2966 23.1988 12.6654 23.1988 13.05C23.1988 13.4346 23.3516 13.8034 23.6235 14.0753C23.8954 14.3472 24.2642 14.5 24.6488 14.5Z" fill="#007EFF"/>
</svg>
