<svg width="51" height="44" viewBox="0 0 51 44" fill="none" xmlns="http://www.w3.org/2000/svg">
<path d="M1.26238 0C0.927573 0 0.606483 0.131697 0.369741 0.36612C0.133 0.600543 0 0.918489 0 1.25001V36.7504C0 37.0819 0.133 37.3999 0.369741 37.6343C0.606483 37.8687 0.927573 38.0004 1.26238 38.0004H35.0335C34.5921 37.4254 34.1518 36.8499 33.7085 36.2754C33.1571 35.4699 32.3562 34.7804 32.1214 33.8013C28.8746 35.1284 25.144 35.2514 21.8123 34.1499C21.7391 34.1264 21.6674 34.0974 21.5947 34.0729C21.2125 34.4429 20.8004 35.0879 20.7353 35.5004H15.9347C16.2953 34.2909 15.5298 32.4023 16.2539 31.1713C16.3114 31.1563 16.3811 31.0598 16.4129 30.9603C16.3311 30.8843 16.2483 30.8103 16.1685 30.7328C15.4586 30.9468 15.1748 31.4763 14.7799 31.9408C14.9955 32.9528 13.4393 32.7133 13.5963 33.7458C14.6804 34.5784 12.5955 33.9439 11.9754 34.0103C11.3175 34.0173 9.39258 33.3353 10.0606 34.7304C9.95611 35.1134 10.0526 35.3484 10.2449 35.5004H9.95005C9.9041 35.0624 9.07093 34.9974 8.74978 34.7824C8.20898 34.6524 7.56315 34.5874 7.00316 34.3404C6.85925 34.7364 5.56052 35.1894 5.27623 35.5004H2.52475V17.2347C2.91205 17.4917 3.78056 17.3897 2.59696 16.8347H2.52475V11.0776C2.75451 10.9626 2.91861 10.9261 2.90852 11.1186C3.47759 10.9286 3.72552 9.5571 4.71018 10.1186C5.3242 10.2081 6.34016 11.1506 5.82965 11.2686C6.22755 12.2306 6.50982 11.6111 6.99811 12.7576C6.66383 14.3256 7.94388 15.4877 8.64627 16.4872C9.48752 16.8332 9.82028 17.9102 11.1877 17.9522C11.3735 18.1132 11.6118 18.2592 11.8603 18.3992C11.9284 17.8822 12.0249 17.3692 12.1466 16.8622C12.1138 16.8547 12.082 16.8502 12.0466 16.8387C10.7312 18.0402 10.4616 15.9602 11.7462 15.8787C11.832 15.8732 11.9244 15.8777 12.0239 15.8912C12.1728 15.8737 12.2966 15.8912 12.4011 15.9277C12.8229 14.5583 13.448 13.2585 14.2558 12.0711C14.6896 11.4302 15.1765 10.8261 15.7115 10.2651C15.4459 9.8251 15.1743 9.5796 14.8536 10.1541C14.8294 9.3016 12.5016 8.40809 14.2144 9.2261C15.1127 9.9926 15.4071 9.09309 15.5489 8.47909C16.319 7.68408 14.7597 7.41258 15.044 6.89307C14.5714 6.19156 13.8715 5.47306 13.1524 5.03855C11.7578 5.19855 11.269 4.90705 13.1338 4.90605C13.3019 4.04354 13.5811 3.43254 13.7735 2.70653C13.5716 2.64903 13.3605 2.65803 13.1524 2.65753C12.2602 2.53903 11.7305 2.88053 11.7487 3.55504C11.0786 3.50204 11.6805 2.37102 10.6474 2.71653C9.08103 2.69203 10.9746 3.21603 10.8292 3.29153C10.6499 3.68954 9.52135 3.44154 9.65415 3.84504C9.13708 2.89803 8.90177 4.29654 8.49933 3.33853C8.25695 3.10853 9.51428 3.56554 9.22797 2.72703C8.59476 2.48703 8.36804 2.90703 7.8747 3.07853C6.40227 3.88554 8.13172 4.64455 8.87955 4.91355C10.0066 4.61605 10.0056 4.24004 10.7893 4.65355C11.6679 5.13605 9.90208 4.79705 9.95611 5.53956C9.85512 5.07805 9.72888 4.79955 9.18354 5.39106C8.45641 5.52106 8.13172 4.53155 7.5889 4.60105C6.35177 4.43455 6.8138 7.18957 7.83279 6.25156C8.44934 7.30808 7.04507 6.52857 6.62849 6.41057C5.68776 7.45108 4.67433 6.38357 3.55132 6.34057C3.19179 6.10356 2.83934 6.10056 2.52475 6.22106V2.50003H15.7661C14.8218 2.52553 13.9785 2.64903 14.3219 3.32153C14.2664 4.61855 15.961 3.58854 16.2049 4.76155C16.9088 5.58106 15.7863 7.32358 17.0037 7.01757C16.5558 7.55708 16.6119 8.41659 16.9613 9.09409C18.2539 8.01981 19.7199 7.16858 21.2978 6.57607C21.3256 6.42207 21.3039 6.24507 21.211 6.03606C21.0529 5.25155 21.7881 5.00105 21.5306 4.13104C21.877 3.47604 21.6083 2.78303 21.0145 2.50003H48.4753V6.03906C48.3969 6.00582 48.3165 5.97776 48.2344 5.95506C47.5229 6.59357 48.0981 6.65407 48.4753 6.51057V7.06857C47.634 6.60007 46.7099 6.54857 45.8126 6.74357C45.4052 6.04206 43.9625 6.05856 43.4879 5.42706C42.6517 4.43505 43.7429 4.73105 44.4725 4.65455C44.2655 4.03454 43.0233 3.74054 42.4987 3.84304C41.5509 4.35705 42.9965 4.81805 42.8506 5.50806C42.8506 6.00956 42.2331 6.01306 41.6943 5.98556C41.9119 5.45456 40.6627 4.80155 40.1673 5.23355C39.2296 4.95255 38.8721 5.11755 39.4907 4.15054C39.2745 3.40704 38.3813 3.39303 37.9809 2.87703C37.4693 3.95104 36.6165 3.62554 35.7025 4.27954C35.3364 4.80955 34.574 5.28555 34.5361 5.63556C33.9695 5.89906 33.4025 4.55455 33.0051 5.74556C32.6445 6.75357 33.0253 7.24207 31.8089 6.41707C30.55 5.08855 34.3376 3.95054 32.9298 3.38504C31.7614 3.72254 31.059 4.53805 30.8267 5.69656C30.701 5.96006 30.7581 6.14356 30.8909 6.29207C35.3263 7.60208 38.9968 11.1341 40.489 15.4672C40.5122 15.2062 40.5561 14.9552 40.6445 14.7717C41.0176 14.4896 40.7217 15.8542 41.4928 15.0782C40.9247 16.2857 42.9208 15.2382 43.1909 14.7397C42.7951 13.7556 44.6149 13.2921 44.5725 13.1066C43.9024 12.4106 44.2831 13.1031 43.5439 13.2626C43.299 12.9396 44.0135 11.1686 43.0627 11.3311C41.6428 10.9691 44.2705 9.9336 44.98 10.3146C45.3032 9.1306 45.7677 10.0736 44.9694 10.6181C44.6654 11.6686 44.8108 13.1016 45.7051 11.6976C46.107 11.3101 46.0071 10.3001 46.5302 10.1241C47.2331 9.7961 48.4874 9.5396 48.4545 8.52559C48.4616 8.52359 48.4682 8.52409 48.4753 8.52259V35.5004H46.4762C46.9094 34.9064 47.4825 33.8904 46.8756 33.5218C45.9611 33.3653 45.2779 32.2733 44.1726 32.3188C43.6737 31.7498 42.5249 31.4618 42.2159 31.3508C41.9069 31.2398 41.3706 31.8813 40.8212 31.5978C40.6559 31.5714 40.4871 31.5744 40.3228 31.6068C41.976 33.7318 43.6136 35.8684 45.2572 38.0004H49.7376C50.0724 38.0004 50.3935 37.8687 50.6303 37.6343C50.867 37.3999 51 37.0819 51 36.7504V1.25001C51 0.918489 50.867 0.600543 50.6303 0.36612C50.3935 0.131697 50.0724 0 49.7376 0H1.26238ZM25.8484 2.66003C25.0354 3.05653 26.4771 4.63505 26.517 3.12803C26.6659 3.34804 27.6652 3.57004 27.3385 2.86053C26.6124 2.43703 26.7225 2.92403 25.8479 2.66053M37.5027 2.66153C36.6256 3.08453 38.2702 3.09253 37.5027 2.66153V2.66153ZM9.63951 2.80503C8.98307 3.28803 10.603 3.76604 9.72535 2.83053L9.63951 2.80503ZM15.0147 3.09153C14.8526 3.19203 15.1788 3.24753 15.0147 3.09153V3.09153ZM8.67505 3.70904C8.63465 3.71554 8.75231 3.79754 8.67505 3.70904V3.70904ZM10.9236 3.91504C10.863 4.23504 11.7149 4.05104 10.9236 3.91504V3.91504ZM12.032 4.00504C12.3082 4.19004 12.7843 3.95754 12.032 4.00504V4.00504ZM9.8228 4.03804C9.76019 4.26254 10.3121 4.08804 9.8228 4.03804V4.03804ZM11.3892 4.74205C11.1458 4.89455 11.884 4.85505 11.3892 4.74205V4.74205ZM11.7381 5.52156C11.4402 6.46257 12.797 7.73658 11.7441 6.66407C11.4548 6.23506 11.3043 5.82406 11.7381 5.52156ZM9.97176 5.61656C10.4055 6.33407 11.066 6.52557 10.5131 6.77257C10.146 6.59657 10.0611 6.04856 9.97176 5.61656ZM16.778 6.33957C16.6134 6.34957 16.8391 6.38007 16.778 6.33957V6.33957ZM6.53961 6.56607C6.46135 6.56957 6.48306 6.79307 6.53961 6.56607V6.56607ZM10.45 6.93307C10.2192 6.92457 10.4146 7.40608 10.45 6.93307V6.93307ZM13.3524 6.93607C13.1636 7.86108 13.9129 7.80208 13.8624 7.89508C13.2433 8.16508 13.3913 9.2771 12.9176 8.42859C12.6187 8.29059 13.0711 7.06957 13.2746 6.96257L13.3524 6.93607ZM10.3091 6.93707C10.3045 7.15357 10.3752 6.95207 10.3091 6.93707V6.93707ZM46.8352 7.02007C46.7473 7.10507 46.8554 7.05407 46.8352 7.02007V7.02007ZM10.3454 7.14107C9.8839 7.46608 10.6898 7.49808 10.3454 7.14107V7.14107ZM26.3917 7.63258C23.6382 7.65152 20.9655 8.55594 18.7761 10.2096C13.1762 14.4321 12.0865 22.3922 16.3508 27.9373C20.3424 33.1278 27.6314 34.3799 33.1404 31.0563L34.1927 32.4248C33.9857 32.9018 34.0049 33.3578 34.2457 33.6719L41.8806 43.5995C42.3351 44.19 43.4323 44.1195 44.3311 43.4415C45.2299 42.7639 45.59 41.7354 45.136 41.1444L37.5012 31.2168C37.2598 30.9028 36.821 30.7628 36.3014 30.8338L35.2491 29.4658C39.9497 25.0908 40.6702 17.8007 36.6791 12.6101C34.5467 9.8376 31.4705 8.18259 28.2277 7.74758C27.6193 7.66601 27.0057 7.62758 26.3917 7.63258ZM12.0567 8.88659C12.3723 9.6286 13.5912 9.1931 13.1141 10.2046C13.6453 10.6996 13.0297 12.4446 12.8232 10.9576C11.5013 10.9511 10.8701 9.6451 11.98 8.95959L12.0567 8.88659ZM13.2085 9.00959C12.5723 9.19909 13.6125 9.3496 13.2085 9.00959V9.00959ZM44.9335 9.9236C44.9689 9.8986 45.0567 10.0781 44.9335 9.9236V9.9236ZM26.9002 10.4341C28.3656 10.4894 29.8003 10.8662 31.1008 11.5371C32.4012 12.2081 33.5351 13.1566 34.4205 14.3141C35.2137 15.341 35.7942 16.5129 36.1288 17.7625C36.4635 19.0122 36.5455 20.3149 36.3703 21.5961C36.1952 22.8772 35.7662 24.1114 35.108 25.228C34.4498 26.3445 33.5754 27.3213 32.535 28.1023C31.4979 28.8878 30.3144 29.4628 29.0524 29.7941C27.7903 30.1255 26.4746 30.2068 25.1808 30.0333C23.8869 29.8598 22.6404 29.435 21.5128 28.7833C20.3852 28.1315 19.3987 27.2656 18.61 26.2353C17.8168 25.2084 17.2362 24.0365 16.9017 22.7868C16.5671 21.5372 16.4851 20.2344 16.6603 18.9532C16.8355 17.6721 17.2646 16.4379 17.9228 15.3214C18.581 14.2049 19.4555 13.2281 20.4959 12.4471C22.3286 11.0576 24.5938 10.3456 26.9002 10.4341ZM46.3853 10.9491C45.5925 11.5986 47.3371 11.4796 46.3853 10.9491V10.9491ZM47.3295 11.4901C46.4519 11.9146 48.0965 11.9151 47.3295 11.4901V11.4901ZM47.9011 11.6881C47.1184 12.3331 48.6989 11.9941 47.9011 11.6881V11.6881ZM47.8698 11.8281C47.8431 11.8736 47.9132 11.8276 47.8698 11.8281V11.8281ZM47.9445 11.9086C47.8814 11.9166 47.9683 11.9466 47.9445 11.9086V11.9086ZM26.5654 12.4301C25.4616 12.4106 24.3719 12.6551 23.3671 13.0941C23.4196 13.1576 23.4948 13.2186 23.6049 13.2736C22.595 12.9486 22.3011 14.2121 22.7263 14.7807L23.4095 14.8362L23.9806 14.5872C24.3497 14.2071 24.4416 14.2726 24.5608 13.6971L24.7835 13.7256L24.9602 13.6526L25.3627 13.8496C25.8454 14.0366 25.8681 14.4397 25.7065 14.5577C25.4778 14.6972 25.7474 14.7177 25.7696 14.8042C25.8838 14.7717 25.9504 14.6742 26.0221 14.6222L26.1514 14.5762C26.623 14.2696 26.2938 14.1686 25.9661 13.7551L26.1398 13.7991C26.3938 14.0841 26.5432 14.4066 26.6937 14.7492C26.7109 14.7627 26.7265 14.7802 26.7462 14.7862C26.8603 14.8237 27.0214 14.8112 27.1593 14.7737C27.2956 14.7367 27.3047 14.4791 27.2815 14.2326C27.4759 15.1107 29.3826 14.8497 28.2479 15.3852C27.594 15.3997 26.5548 15.0447 26.3635 15.4932C25.9403 15.3032 25.7242 15.1787 25.6384 15.0812C25.3778 14.9842 24.628 14.7032 24.6012 14.7032C24.5694 14.7032 23.615 14.8752 23.615 14.8752L22.8273 15.1712C22.5713 15.9882 22.1673 15.5512 22.03 16.1847C21.9224 16.5897 20.9969 17.4647 21.4816 18.1537C21.9143 20.1467 24.4234 18.8197 25.0082 19.7767C24.7335 20.3662 26.0923 21.4877 25.3319 22.4532C25.6904 23.8557 26.6538 26.2003 28.204 24.2043C28.613 23.0092 29.4937 22.3632 29.4623 21.1777C28.9943 20.0102 31.7498 19.1447 30.6475 18.1992C30.3834 18.2302 30.3531 18.2867 30.1435 18.3557C29.7032 18.3392 29.5896 17.9877 29.4396 17.7667C29.3251 17.6054 29.2238 17.4354 29.1367 17.2582C29.4169 17.6882 29.7062 18.0532 30.1122 18.2777C30.8146 18.1217 31.62 17.6072 31.9477 17.2297C31.9396 15.7582 33.9372 17.2847 33.8968 18.3907C34.0205 18.6887 34.1776 18.8957 34.3351 19.0167C34.2231 18.3094 34.0099 17.6214 33.7019 16.9737C33.1419 15.7567 32.2451 14.7117 31.1554 13.9296C31.1353 13.9606 31.0848 13.9626 31.0949 13.8876C30.9475 13.7843 30.7968 13.6858 30.6429 13.5921C30.6596 13.6616 30.6798 13.7321 30.703 13.8036C30.6369 13.7061 30.5672 13.6071 30.5096 13.5116C29.32 12.8176 27.9556 12.4196 26.566 12.4296L26.5654 12.4301ZM42.995 12.4961C43.3611 13.5291 41.7215 15.9232 41.4832 14.3516C41.6513 13.5746 42.997 13.6916 42.995 12.4961ZM12.2562 12.7691C12.2445 12.8066 12.3299 12.7606 12.2562 12.7691V12.7691ZM13.0343 13.1326C12.8565 13.2236 13.1812 13.2536 13.0343 13.1326V13.1326ZM28.1969 13.1656C28.6044 13.5056 29.8547 13.9556 28.5312 13.5966C27.8425 13.9081 27.6294 13.7086 28.1969 13.1656ZM25.0471 13.7706C24.9582 13.7976 25.0334 13.9801 24.9779 14.0376C25.3566 14.2211 25.1445 13.8641 25.2006 13.8056C25.1238 13.7696 25.0763 13.7611 25.0471 13.7706ZM30.8202 14.1431C30.9373 14.4446 31.0151 14.6372 30.7141 14.2631C30.739 14.2512 30.7612 14.2344 30.7794 14.2138C30.7976 14.1932 30.8115 14.1691 30.8202 14.1431ZM25.0824 14.1806C24.934 14.1646 24.8552 14.2631 24.8547 14.4006C25.246 14.6112 25.2056 14.2636 25.2536 14.2371C25.2003 14.208 25.1427 14.1889 25.0824 14.1806ZM31.1282 16.3222C31.3514 16.3312 30.9146 16.6422 30.9893 16.3397C31.0514 16.3262 31.0964 16.3207 31.1282 16.3222ZM46.5095 18.2782C45.7823 19.0432 47.376 19.1777 46.5095 18.2782V18.2782ZM46.459 18.3972C46.4454 18.4482 46.5337 18.3892 46.459 18.3972V18.3972ZM46.5216 18.5067C46.4459 18.4942 46.5287 18.5582 46.5216 18.5067V18.5067ZM47.0503 18.6067C46.3459 19.2137 47.9006 18.9927 47.0503 18.6067V18.6067ZM47.126 18.7792C47.1159 18.8527 47.1796 18.7702 47.126 18.7792V18.7792ZM47.0265 18.8057C46.9856 18.8407 47.073 18.8677 47.0265 18.8057V18.8057ZM41.2716 19.5917C41.2843 19.9037 41.2868 20.2152 41.2797 20.5267C41.8589 20.6182 42.5845 20.5922 42.5981 21.2267C43.6363 21.2712 42.4911 22.7727 42.4532 21.3827C42.0303 21.3224 41.5989 21.3948 41.2196 21.5897C41.1143 22.6808 40.8887 23.7572 40.547 24.7998C41.3953 24.5333 42.2608 24.5593 42.7718 25.3758C44.1175 25.3708 42.9728 26.2793 43.9267 26.4648C44.3331 25.6428 43.7126 25.7463 44.475 25.0763C45.2148 24.1398 44.7305 22.9302 43.9928 22.4187C43.8393 21.8397 43.2278 21.5267 43.5156 21.1317C44.0761 21.8842 44.8704 21.3207 44.2074 20.9137C44.6967 20.4612 46.4448 22.0797 45.4632 20.8347C44.9785 20.7457 44.3124 19.7532 44.1615 20.3922C44.118 20.9222 42.7824 19.5877 42.2896 20.1337C42.1472 19.6417 41.4504 19.9387 41.411 20.1582C41.6251 19.8282 41.4903 19.6577 41.2716 19.5917ZM43.8408 20.0192C43.1172 20.4262 44.4942 20.4122 43.8408 20.0192V20.0192ZM24.938 20.0542C24.9213 20.0757 24.9961 20.1842 24.938 20.0542V20.0542ZM18.5993 20.1152C18.5844 20.8095 18.6623 21.5027 18.8311 22.1767C19.4118 21.3057 19.3891 20.4877 18.5993 20.1152ZM43.8034 20.1392C43.7499 20.1512 43.8469 20.1702 43.8034 20.1392V20.1392ZM44.2927 20.1992C44.0564 20.3642 44.5286 20.3642 44.2927 20.1992V20.1992ZM44.2927 20.2042C44.0776 20.3572 44.5074 20.3572 44.2927 20.2042V20.2042ZM43.8519 20.2477C43.7772 20.2387 43.86 20.2982 43.8519 20.2477V20.2477ZM41.2757 20.7907C41.2706 20.9107 41.26 21.0307 41.2519 21.1507C41.415 20.9687 41.4857 20.7807 41.2757 20.7907ZM29.7668 21.3087C29.1831 21.6262 30.3915 21.7712 29.8865 21.3987L29.8648 21.3452L29.7668 21.3087ZM30.4495 21.3977C29.8729 21.7547 28.9781 23.4567 30.2188 23.5102C30.5177 23.1582 31.2756 21.5887 30.4495 21.3977ZM46.0909 22.4817C45.6288 23.3842 47.4325 23.0232 46.0909 22.4817V22.4817ZM31.3736 22.6017C30.6232 23.1002 32.1012 23.0372 31.3736 22.6017V22.6017ZM47.2952 24.6598C47.7224 25.6173 46.3055 26.1908 46.4125 27.0798C47.1397 27.4268 47.5148 26.1208 48.0269 25.7213C48.6323 25.1973 47.5502 25.0423 47.2952 24.6598ZM13.7119 27.6048C13.7947 28.1318 14.0442 28.6418 14.4896 28.7973C14.2111 28.4124 13.9516 28.0145 13.7119 27.6048Z" fill="white"/>
</svg>
