<svg width="44" height="60" viewBox="0 0 44 60" fill="none" xmlns="http://www.w3.org/2000/svg">
<path d="M22.001 25.9268L18.755 35.9158H8.25098L16.749 42.0898L13.501 52.0778L22.001 45.9058L30.499 52.0778L27.251 42.0898L35.749 35.9158H25.245L22.001 25.9268ZM24.839 41.0468L26.591 46.4428L22.001 43.1068L17.407 46.4428L19.163 41.0468L14.571 37.7108H20.247L22.001 32.3148L23.755 37.7108H29.429L24.839 41.0468Z" fill="#2949FF"/>
<path d="M34.657 24.519V15.821C34.657 15.457 34.458 15.151 34.176 14.961L44 0H25.165L22.001 4.746L18.837 0H0L9.823 14.96C9.67802 15.0526 9.55828 15.1798 9.47451 15.33C9.39074 15.4803 9.34555 15.649 9.343 15.821V24.519C4.862 28.187 2 33.758 2 40C2 51.045 10.955 60 22 60C22.681 60 23.355 59.965 24.018 59.898C34.115 58.887 42 50.365 42 40C42 33.758 39.138 28.187 34.657 24.519ZM30.826 1H37.154L28.329 14.239L25.165 9.493L30.826 1ZM31.493 18.985L32.466 17.527C32.518 17.652 32.548 17.788 32.548 17.931V22.15C32.5457 22.4135 32.4389 22.6653 32.251 22.85C29.251 21.052 25.752 20 22 20C18.3874 20.0008 14.8433 20.9865 11.749 22.851C11.5611 22.6659 11.4543 22.4138 11.452 22.15V17.931C11.452 17.788 11.482 17.651 11.534 17.527L12.507 18.986L31.493 18.985ZM6.846 1H13.174L24.498 17.985H18.17L6.846 1ZM22 57C12.612 57 5 49.389 5 40C5 30.611 12.612 23 22 23C31.388 23 39 30.611 39 40C39 49.389 31.388 57 22 57Z" fill="#2949FF"/>
</svg>
