<svg width="62" height="62" viewBox="0 0 62 62" fill="none" xmlns="http://www.w3.org/2000/svg">
<path d="M23.566 36.5316H23.8052L25.0011 38.4451L26.197 40.2389L26.9145 41.1956L27.7516 41.3152L28.7084 40.7173H28.9475L29.9043 42.8699L30.9806 44.5441L31.9373 45.74L33.0136 46.9359L34.3291 48.0122L36.1229 49.2081L38.3951 50.2844L40.7869 51.002L42.222 51.2412L44.6138 51.3607L47.0056 51.1216L49.0386 50.6432L50.9521 49.9257L51.9088 49.4473H52.2675L53.8222 51.4803L55.4965 53.5134L56.812 55.1876L58.1274 56.8619L59.6821 58.7753L60.9976 60.4496L61.9543 61.6455V61.8846H0.724365L0.963545 61.2867L4.43165 56.1443L7.89975 50.8824L11.3679 45.74L14.836 40.4781L16.6298 37.8471L17.1082 37.6079L23.566 36.5316Z" fill="white"/>
<path d="M16.1515 0.654663H30.7414V11.4177H20.8155V15.8426L20.3371 17.0385L19.5 17.8756L18.4237 18.3539H3.83374L4.19251 17.756L5.508 16.3209L6.5843 15.0054L8.01938 13.4508L8.13897 13.092L6.82348 11.5373L5.86677 10.3414L4.79046 9.02595L3.83374 7.83005V7.59087H13.7597V3.16605L14.238 1.97015L15.0752 1.13302L16.1515 0.654663Z" fill="white"/>
<path d="M57.41 20.5066H58.1275L58.7255 21.1045V21.9417L44.9727 35.6945H44.1355L43.5376 35.0965V34.379L44.3747 33.4223L57.1708 20.6262L57.41 20.5066Z" fill="white"/>
<path d="M59.0842 22.0613L60.1605 22.3005L61.9543 22.8984L61.7151 23.3768L58.1274 26.9645H54.6593L54.4202 26.7253L59.0842 22.0613Z" fill="white"/>
<path d="M56.214 17.2777L56.4532 17.5169L57.1708 19.6695L57.0512 20.2675L52.5068 24.8119H52.3872L52.2676 21.2242L56.214 17.2777Z" fill="white"/>
<path d="M42.9396 20.8652H45.5706L47.7232 21.224L49.8758 21.9415L51.0717 22.5395L51.1913 23.6158V25.0509L50.4738 25.7684L49.8758 25.5292L48.082 24.6921L46.4077 24.2137L45.6902 24.0942H42.82L41.1458 24.4529L39.5911 25.0509L38.0364 25.888L36.721 26.9643L35.7642 27.921L34.9271 29.1169L33.9704 31.0304L33.492 32.4654L33.2528 33.9005V36.1727L33.6116 38.0862L34.3292 39.88L35.0467 41.1955L36.0034 42.3914L37.1993 43.5873L38.9932 44.7832L41.0262 45.6203L42.7004 45.9791L44.2551 46.0987L46.5273 45.8595L48.4407 45.2615L50.115 44.4244L51.6697 43.2285L52.746 42.1522L53.9419 40.3584L54.6594 38.6841L55.1378 36.8903L55.2574 35.814V34.2593L54.8986 32.2263L54.4202 30.7912L53.5831 29.1169V28.6386L54.0615 28.1602H56.6924L57.5296 29.8345L58.2471 32.3459L58.4863 34.8572L58.3667 36.8903L58.0079 38.8037L57.1708 41.0759L56.0945 42.9893L54.779 44.6636L53.7027 45.7399L52.148 46.9358L50.2346 48.0121L48.2016 48.7296L45.8098 49.208H42.7004L40.6674 48.8492L38.5148 48.1317L36.721 47.175L35.4055 46.2183L34.2096 45.142L33.2528 44.1852L31.9374 42.2718L30.8611 39.9996L30.2631 37.847L30.0239 35.9335V34.1397L30.2631 32.2263L30.8611 30.0736L31.9374 27.8014L33.1333 26.1272L34.4487 24.6921L35.5251 23.7354L37.1993 22.6591L38.8736 21.822L41.2654 21.1044L42.9396 20.8652Z" fill="white"/>
<path d="M43.2985 27.084H45.2119L47.1253 27.5623L48.0821 28.0407L47.3645 28.8778L46.1686 30.0737L44.9727 29.9541H43.5377L41.983 30.4325L40.9067 31.15L40.0695 31.9872L39.352 33.4222L39.1128 34.4985V35.5749L39.4716 37.0099L40.1891 38.2058L40.6675 38.8038L41.7438 39.5213L42.8201 39.9997L43.4181 40.1193H45.0923L46.2882 39.7605L47.4841 39.043L48.3212 38.2058L48.9192 37.1295L49.278 36.0532V34.0202L49.1584 33.0635L50.9522 31.2696H51.311L51.9089 32.7047L52.1481 33.6614V36.412L51.6698 38.0862L50.8326 39.6409L49.7563 40.8368L48.7996 41.6739L46.8862 42.6307L45.3315 42.9894H43.1789L41.2654 42.5111L39.7108 41.6739L38.5149 40.7172L37.5582 39.5213L36.721 37.8471L36.3623 36.5316L36.2427 35.5749V34.4985L36.6014 32.5851L37.1994 31.15L38.1561 29.8345L39.2324 28.7582L40.5479 27.9211L42.1026 27.3232L43.2985 27.084Z" fill="white"/>
<path d="M28.9477 12.6136H30.7416L30.8612 21.3437L32.5354 23.4963L32.2962 23.9747L31.2199 25.1706L30.1436 26.8448L29.1869 28.7583L28.4694 30.9109L28.1106 32.5851L27.991 33.5419V36.5316L28.1106 38.3254L27.6322 38.445L25.5992 35.3357L24.7621 34.1398L24.5229 34.0202L23.0878 34.1398L19.1414 34.7378L19.3805 34.1398L21.0548 31.9872L22.1311 30.5521L24.0445 28.0407L25.7188 25.7685L26.9147 24.2139L28.8281 21.7025L28.9477 12.6136Z" fill="white"/>
</svg>
