<svg width="54" height="63" viewBox="0 0 54 63" fill="none" xmlns="http://www.w3.org/2000/svg">
<path d="M8.54672 20.782H9.34649L10.013 21.3152L10.1463 22.1149L9.74637 22.7814L8.28013 24.1143L7.48037 25.7139L7.34708 26.247L7.21378 28.3797H8.68002L9.21319 28.9129V29.9793L8.68002 30.5124L6.54731 30.9123L5.21437 31.5788L4.14802 32.5119L3.34825 33.8448L3.08167 34.7779V36.9106L3.61484 38.3768L4.5479 39.5764L5.88084 40.5095L6.8139 40.6428L8.01355 39.3099L9.34649 38.2435L9.87966 37.9769H10.6794L11.3459 38.5101V39.7097L10.4128 40.5095L9.21319 41.4426L8.01355 43.1754L7.48037 44.6416L7.34708 45.1748V47.8407L8.01355 49.8401L8.9466 51.173L10.013 52.2394L11.3459 53.0391L12.8121 53.5723L13.4786 53.7056V52.3727L14.0118 51.8395H15.0781L15.6113 52.3727L16.0112 54.772L16.6777 56.5048L18.0106 58.2376L19.7434 59.4373L21.2097 59.9704L23.2091 60.237L24.9419 59.9704L26.2748 59.5705V35.311L26.808 34.7779H27.8744L28.4075 35.311V59.5705L29.7405 59.9704L31.6066 60.237L33.4727 59.9704L35.2055 59.304L36.9384 57.971L38.138 56.2382L38.6712 54.772L39.0711 52.3727L39.6042 51.8395H40.6706L41.2038 52.3727V53.7056L42.8033 53.3057L44.2695 52.506L45.6025 51.3063L46.4022 50.24L46.9354 49.1736L47.3353 47.8407V45.1748L46.8021 43.442L45.8691 41.9757L45.0693 41.0427L43.6031 39.9763L43.3365 39.7097V38.5101L44.0029 37.9769H44.8027L46.2689 38.91L47.6019 40.2429L47.8685 40.6428L48.8015 40.5095L50.1345 39.5764L51.0675 38.3768L51.6007 36.9106V34.7779L51.0675 33.3116L50.1345 32.112L49.0681 31.3122L47.6019 30.779L46.0023 30.5124L45.4692 29.9793V28.9129L46.0023 28.3797H47.4686L47.3353 26.247L46.8021 24.7808L46.0023 23.7145L44.6694 22.5148L44.5361 21.715L44.936 21.0486L45.3359 20.782H46.1356L47.6019 21.8483L48.6682 23.1813L49.3347 24.5142L49.7346 25.8472V28.6463L49.6013 29.0462L50.4011 29.3128L51.4674 30.1126L52.1339 30.779L52.9336 31.7121L53.7334 33.4449L54 34.378V37.3104L53.4668 38.91L52.667 40.3762L52.0006 41.176L50.6676 42.2423L49.3347 42.9088L49.6013 44.2417L49.7346 44.9082V48.1073L49.2014 50.1067L48.2683 51.8395L47.202 53.1724L45.8691 54.3721L44.2695 55.3051L42.2701 55.9716L40.6706 56.1049L40.2707 57.3045L39.3376 58.7708L37.8714 60.3703L36.0053 61.57L34.4058 62.2364L33.2061 62.503H30.0071L28.4075 62.1031L27.2079 61.7033L25.3418 62.3697L24.6753 62.503H21.4762L19.8767 62.1031L17.744 61.0368L16.4111 59.9704L15.2114 58.6375L14.2784 57.038L14.0118 56.1049L12.4122 55.9716L10.4128 55.3051L8.81331 54.3721L7.21378 52.9058L6.01413 51.173L5.34766 49.7068L4.94778 48.1073V44.9082L5.34766 43.3087V42.9088L3.61484 41.9757L2.68178 41.176L1.61543 39.7097L1.08226 38.6434L0.682373 37.3104V34.378L1.34884 32.3786L2.2819 31.0456L2.81508 30.3792L4.28131 29.3128L5.08108 29.0462L4.94778 28.6463V25.8472L5.61425 23.8477L6.54731 22.5148L7.21378 21.715L8.54672 20.782Z" fill="white"/>
<path d="M18.2771 43.3087H20.0099L21.4761 43.8419L22.6758 44.775L23.6088 45.9746L24.142 47.4408V49.1737L23.6088 49.7068H22.5425L22.0093 49.1737L21.6094 47.4408L21.0762 46.6411L20.2765 45.9746L19.61 45.708L18.0105 45.3081L17.7439 44.9082V43.8419L18.2771 43.3087Z" fill="white"/>
<path d="M34.6722 43.3087H36.405L36.9382 43.8419V44.9082L36.405 45.4414L34.6722 45.8413L33.8724 46.3745L33.2059 47.1742L32.9393 47.8407L32.5394 49.4402L32.1396 49.7068H31.0732L30.54 49.1737V47.4408L31.0732 45.9746L32.0063 44.775L33.2059 43.8419L34.6722 43.3087Z" fill="white"/>
<path d="M16.145 29.5795H17.0781L17.7446 30.1126V31.3123L16.9448 32.3786L16.6782 33.1784L16.4116 34.3781L16.0118 34.7779H14.8121L14.2789 34.1115V32.9118L14.8121 31.179L15.6119 30.1126L16.145 29.5795Z" fill="white"/>
<path d="M37.6043 29.5795H38.4041L39.4705 30.5125L40.1369 31.8455L40.4035 32.9118V34.1115L39.8703 34.7779H38.6707L38.1375 34.1115L37.8709 32.6452L37.0712 31.4456L36.9379 31.3123V30.1126L37.6043 29.5795Z" fill="white"/>
<path d="M25.6087 0.654663H29.0744L31.3404 1.18784L33.4731 2.25419L34.806 3.18725L36.139 4.3869L37.3386 5.98642L38.405 8.11913L38.9381 9.85195L39.0714 10.5184V14.1174L38.5383 16.2501L37.8718 17.8496L36.6721 19.7157L35.3392 21.1819L33.7397 22.3816L32.8066 22.9148L32.6733 25.7139L32.1402 26.2471H22.543L22.0098 25.7139L21.8765 22.9148L20.4103 21.9817L18.944 20.7821L17.6111 19.1825L16.5448 17.3164L15.8783 15.4503L15.6117 14.1174V10.5184L16.1449 8.38572L17.2112 6.25301L18.1443 4.92007L19.3439 3.58713L20.9435 2.38749L23.0762 1.32113L24.809 0.787957L25.6087 0.654663ZM22.1431 9.31878L20.8102 10.1185L20.1437 11.1849L20.0104 11.5848V13.1843L20.5436 14.2507L21.21 14.9171L22.2764 15.4503L23.0762 15.5836H24.1425V18.7827L24.5424 19.5824L24.809 19.7157H25.6087L26.1419 19.1825L26.2752 18.7827V15.5836H28.4079V18.7827L28.8078 19.5824L29.0744 19.7157H29.8742L30.4073 19.1825L30.5406 18.7827V15.5836H31.607L32.8066 15.317L33.873 14.6505L34.5394 13.5842L34.6727 13.1843V11.5848L34.1396 10.5184L33.4731 9.85195L32.54 9.31878H30.6739L29.341 10.1185L28.6745 11.1849L28.4079 12.3845V13.4509H26.2752V12.3845L26.0086 11.1849L25.3422 10.1185L24.0092 9.31878H22.1431Z" fill="white"/>
<path d="M24.6751 28.3798H30.0069L30.5401 28.9129V29.9793L30.0069 30.5125H24.6751L24.142 29.9793V28.9129L24.6751 28.3798Z" fill="white"/>
<path d="M41.2046 15.1837H42.4042L44.4036 15.7169L44.9368 16.3834V17.3164L44.4036 17.8496L43.6039 17.9829L41.2046 17.3164L40.6714 16.7832V15.7169L41.2046 15.1837Z" fill="white"/>
<path d="M12.2798 15.1837H13.4794L14.0126 15.7169V16.7832L13.4794 17.3164L11.0801 17.9829L10.2804 17.8496L9.74719 17.3164V16.3834L10.2804 15.7169L12.2798 15.1837Z" fill="white"/>
<path d="M43.6039 6.78613L44.4036 6.91943L44.9368 7.4526V8.38566L44.4036 9.05213L42.4042 9.58531H41.2046L40.6714 9.05213V7.98578L41.2046 7.4526L43.6039 6.78613Z" fill="white"/>
<path d="M10.6803 6.78613L12.1465 7.05272L13.4794 7.4526L14.0126 7.98578V9.05213L13.4794 9.58531H12.2798L10.2804 9.05213L9.74719 8.38566V7.4526L10.2804 6.91943L10.6803 6.78613Z" fill="white"/>
<path d="M41.738 11.3181H44.9371L45.4702 11.8513V12.9176L44.9371 13.4508H41.738L41.2048 12.9176V11.8513L41.738 11.3181Z" fill="white"/>
<path d="M9.74704 11.3181H12.9461L13.4793 11.8513V12.9176L12.9461 13.4508H9.74704L9.21387 12.9176V11.8513L9.74704 11.3181Z" fill="white"/>
<path d="M31.0744 11.3181H32.1408L32.674 11.8513V12.9176L32.1408 13.4508H30.5413V11.8513L31.0744 11.3181Z" fill="white"/>
<path d="M22.5437 11.3181H23.61L24.1432 11.8513V13.4508H22.5437L22.0105 12.9176V11.8513L22.5437 11.3181Z" fill="white"/>
</svg>
