<svg width="52" height="44" viewBox="0 0 52 44" fill="none" xmlns="http://www.w3.org/2000/svg">
<path d="M48 0H4C2.93913 0 1.92172 0.421427 1.17157 1.17157C0.421427 1.92172 0 2.93913 0 4V40C0 41.0609 0.421427 42.0783 1.17157 42.8284C1.92172 43.5786 2.93913 44 4 44H7.3475C7.72602 44.0001 8.0968 43.8928 8.41676 43.6906C8.73671 43.4883 8.99271 43.1995 9.155 42.8575C10.1275 40.8042 11.663 39.0692 13.5829 37.8542C15.5027 36.6392 17.728 35.9942 20 35.9942C22.272 35.9942 24.4973 36.6392 26.4171 37.8542C28.337 39.0692 29.8725 40.8042 30.845 42.8575C31.0073 43.1995 31.2633 43.4883 31.5832 43.6906C31.9032 43.8928 32.274 44.0001 32.6525 44H48C49.0609 44 50.0783 43.5786 50.8284 42.8284C51.5786 42.0783 52 41.0609 52 40V4C52 2.93913 51.5786 1.92172 50.8284 1.17157C50.0783 0.421427 49.0609 0 48 0ZM14 26C14 24.8133 14.3519 23.6533 15.0112 22.6666C15.6705 21.6799 16.6075 20.9108 17.7039 20.4567C18.8003 20.0026 20.0067 19.8838 21.1705 20.1153C22.3344 20.3468 23.4035 20.9182 24.2426 21.7574C25.0818 22.5965 25.6532 23.6656 25.8847 24.8295C26.1162 25.9933 25.9974 27.1997 25.5433 28.2961C25.0892 29.3925 24.3201 30.3295 23.3334 30.9888C22.3467 31.6481 21.1867 32 20 32C18.4087 32 16.8826 31.3679 15.7574 30.2426C14.6321 29.1174 14 27.5913 14 26ZM48 40H33.8575C32.1872 37.1287 29.6697 34.8443 26.65 33.46C28.164 32.1119 29.2325 30.3356 29.7139 28.3664C30.1953 26.3973 30.0669 24.3283 29.3457 22.4338C28.6245 20.5393 27.3445 18.9087 25.6755 17.7582C24.0064 16.6077 22.0272 15.9916 20 15.9916C17.9728 15.9916 15.9936 16.6077 14.3245 17.7582C12.6555 18.9087 11.3755 20.5393 10.6543 22.4338C9.93308 24.3283 9.80467 26.3973 10.2861 28.3664C10.7675 30.3356 11.836 32.1119 13.35 33.46C10.3303 34.8443 7.81279 37.1287 6.1425 40H4V4H48V40ZM8 14V10C8 9.46957 8.21071 8.96086 8.58579 8.58579C8.96086 8.21071 9.46957 8 10 8H42C42.5304 8 43.0391 8.21071 43.4142 8.58579C43.7893 8.96086 44 9.46957 44 10V34C44 34.5304 43.7893 35.0391 43.4142 35.4142C43.0391 35.7893 42.5304 36 42 36H38C37.4696 36 36.9609 35.7893 36.5858 35.4142C36.2107 35.0391 36 34.5304 36 34C36 33.4696 36.2107 32.9609 36.5858 32.5858C36.9609 32.2107 37.4696 32 38 32H40V12H12V14C12 14.5304 11.7893 15.0391 11.4142 15.4142C11.0391 15.7893 10.5304 16 10 16C9.46957 16 8.96086 15.7893 8.58579 15.4142C8.21071 15.0391 8 14.5304 8 14Z" fill="white"/>
</svg>
