<svg version="1.1" id="Capa_1" xmlns="http://www.w3.org/2000/svg" xmlns:xlink="http://www.w3.org/1999/xlink" x="0px" y="0px" viewBox="0 0 512 512" style="enable-background:new 0 0 512 512;" xml:space="preserve">
<g>
	<g>
		<linearGradient id="SVGID_1_" gradientUnits="userSpaceOnUse" x1="123.1188" y1="411.5456" x2="399.1551" y2="135.5092">
			<stop offset="0" style="stop-color:#CFDBFF;stop-opacity:0"/>
			<stop offset="1" style="stop-color:#B4C2FF"/>
		</linearGradient>
		<path style="fill:url(#SVGID_1_);" d="M502.429,366.558c-17.301-78.848-138.711-82.681-156.904-163.431&#10;&#9;&#9;&#9;c-5.094-22.609,1.494-46.178,0.154-69.316C338.732,13.802,187.66-66.127,64.283,75.234&#10;&#9;&#9;&#9;c-66.719,76.444-100.42,256.686,49.82,297.005C292.036,419.99,259.409,492.482,347.35,510.334&#10;&#9;&#9;&#9;C418.365,524.75,519.2,442.989,502.429,366.558z"/>
	</g>
	<g>
		<g>
			<g>
				<g>
					<path style="opacity:0.1;fill:#0000C9;" d="M420.957,71.507H223.272c-5.523,0-10,4.477-10,10v29.124&#10;&#9;&#9;&#9;&#9;&#9;&#9;c-11.199,0.001-21.847,2.336-31.506,6.527c-8.39-18.064-26.682-30.597-47.912-30.597c-29.167,0-52.812,23.644-52.812,52.811&#10;&#9;&#9;&#9;&#9;&#9;&#9;s23.645,52.812,52.812,52.812c0.073,0,0.144-0.005,0.217-0.005c0.578,20.253,8.731,38.608,21.755,52.305&#10;&#9;&#9;&#9;&#9;&#9;&#9;c14.99,15.765,23.037,36.886,23.037,58.64v1.435c0,14.874-4.007,29.374-11.465,42.034&#10;&#9;&#9;&#9;&#9;&#9;&#9;c-25.422,6.491-42.397,18.214-42.397,31.597c0,0.041,0.003,0.081,0.004,0.121c-21.402,9.261-34.579,21.879-34.579,35.787&#10;&#9;&#9;&#9;&#9;&#9;&#9;v26.932c0,28.421,55,51.461,122.846,51.461c67.846,0,122.846-23.04,122.846-51.461v-26.932&#10;&#9;&#9;&#9;&#9;&#9;&#9;c0-13.908-13.177-26.526-34.579-35.787c0-0.04,0.004-0.081,0.004-0.121c0-2.952-0.827-5.824-2.388-8.576h121.802&#10;&#9;&#9;&#9;&#9;&#9;&#9;c5.523,0,10-4.477,10-10V81.507C430.957,75.984,426.48,71.507,420.957,71.507z"/>
					<g>
						<g>
							<path style="fill:#6581FC;" d="M420.957,343.615H223.272c-5.523,0-10-4.477-10-10V55.507c0-5.523,4.477-10,10-10h197.685&#10;&#9;&#9;&#9;&#9;&#9;&#9;&#9;&#9;c5.523,0,10,4.477,10,10v278.107C430.957,339.138,426.48,343.615,420.957,343.615z"/>
							<path style="fill:#FFFFFF;" d="M233.272,284.482V104.64c0-21.612,17.52-39.133,39.133-39.133h99.419&#10;&#9;&#9;&#9;&#9;&#9;&#9;&#9;&#9;c21.612,0,39.133,17.52,39.133,39.133v179.842c0,21.612-17.52,39.133-39.133,39.133h-99.419&#10;&#9;&#9;&#9;&#9;&#9;&#9;&#9;&#9;C250.792,323.615,233.272,306.094,233.272,284.482z"/>
							<g>
								
									<line style="fill:none;stroke:#6581FC;stroke-width:10;stroke-linecap:round;stroke-linejoin:round;stroke-miterlimit:10;" x1="364.714" y1="124.584" x2="379.885" y2="124.584"/>
								
									<line style="fill:none;stroke:#6581FC;stroke-width:10;stroke-linecap:round;stroke-linejoin:round;stroke-miterlimit:10;" x1="264.344" y1="145.44" x2="379.885" y2="145.44"/>
								
									<line style="fill:none;stroke:#6581FC;stroke-width:10;stroke-linecap:round;stroke-linejoin:round;stroke-miterlimit:10;" x1="264.344" y1="166.296" x2="379.885" y2="166.296"/>
							</g>
							<g>
								
									<line style="fill:none;stroke:#6581FC;stroke-width:10;stroke-linecap:round;stroke-linejoin:round;stroke-miterlimit:10;" x1="307.611" y1="193.896" x2="379.885" y2="193.896"/>
							</g>
							
								<line style="fill:none;stroke:#0000C9;stroke-width:10;stroke-linecap:round;stroke-linejoin:round;stroke-miterlimit:10;" x1="299.978" y1="343.615" x2="356.825" y2="343.615"/>
							
								<path style="fill:none;stroke:#0000C9;stroke-width:10;stroke-linecap:round;stroke-linejoin:round;stroke-miterlimit:10;" d="&#10;&#9;&#9;&#9;&#9;&#9;&#9;&#9;&#9;M379.585,343.615h41.372c5.523,0,10-4.477,10-10V55.507c0-5.523-4.477-10-10-10H223.272c-5.523,0-10,4.477-10,10v27.557"/>
						</g>
						<g>
							<g>
								<path style="fill:#6581FC;" d="M336.118,388.099v26.932c0,28.421-55,51.461-122.846,51.461s-122.846-23.04-122.846-51.461&#10;&#9;&#9;&#9;&#9;&#9;&#9;&#9;&#9;&#9;v-26.932H336.118z"/>
								
									<path style="fill:none;stroke:#0000C9;stroke-width:10;stroke-linecap:round;stroke-linejoin:round;stroke-miterlimit:10;" d="&#10;&#9;&#9;&#9;&#9;&#9;&#9;&#9;&#9;&#9;M336.118,388.099v26.932c0,28.421-55,51.461-122.846,51.461s-122.846-23.04-122.846-51.461v-26.932"/>
								<ellipse style="fill:#6581FC;" cx="213.272" cy="388.099" rx="122.846" ry="51.461"/>
								<g>
									
										<path style="fill:none;stroke:#0000C9;stroke-width:10;stroke-linecap:round;stroke-linejoin:round;stroke-miterlimit:10;" d="&#10;&#9;&#9;&#9;&#9;&#9;&#9;&#9;&#9;&#9;&#9;M123.871,352.808c-20.734,9.214-33.446,21.63-33.446,35.291c0,28.421,55,51.461,122.846,51.461&#10;&#9;&#9;&#9;&#9;&#9;&#9;&#9;&#9;&#9;&#9;s122.846-23.04,122.846-51.461c0-13.552-12.508-25.879-32.947-35.069"/>
								</g>
							</g>
							<g>
								<path style="fill:#FFFFFF;" d="M301.543,352.191v25.394c0,20.422-39.52,36.978-88.271,36.978s-88.271-16.555-88.271-36.978&#10;&#9;&#9;&#9;&#9;&#9;&#9;&#9;&#9;&#9;v-25.394H301.543z"/>
								
									<path style="fill:none;stroke:#0000C9;stroke-width:10;stroke-linecap:round;stroke-linejoin:round;stroke-miterlimit:10;" d="&#10;&#9;&#9;&#9;&#9;&#9;&#9;&#9;&#9;&#9;M301.543,352.191v25.394c0,20.422-39.52,36.978-88.271,36.978s-88.271-16.555-88.271-36.978v-25.394"/>
								<g>
									<ellipse style="fill:#FFFFFF;" cx="213.272" cy="352.191" rx="88.271" ry="36.978"/>
									
										<path style="fill:none;stroke:#0000C9;stroke-width:10;stroke-linecap:round;stroke-linejoin:round;stroke-miterlimit:10;" d="&#10;&#9;&#9;&#9;&#9;&#9;&#9;&#9;&#9;&#9;&#9;M249.211,318.409c-10.979-2.053-23.14-3.195-35.939-3.195s-24.96,1.143-35.939,3.195H249.211z"/>
									
										<path style="fill:none;stroke:#0000C9;stroke-width:10;stroke-linecap:round;stroke-linejoin:round;stroke-miterlimit:10;" d="&#10;&#9;&#9;&#9;&#9;&#9;&#9;&#9;&#9;&#9;&#9;M166.895,320.725c-25.141,6.517-41.894,18.171-41.894,31.466c0,20.422,39.52,36.978,88.271,36.978&#10;&#9;&#9;&#9;&#9;&#9;&#9;&#9;&#9;&#9;&#9;s88.271-16.555,88.271-36.978c0-13.289-16.737-24.938-41.859-31.457"/>
								</g>
							</g>
							<path style="fill:#6581FC;" d="M271.026,218.157c13.635-14.501,21.869-34.138,21.491-55.7&#10;&#9;&#9;&#9;&#9;&#9;&#9;&#9;&#9;c-0.747-42.571-35.541-77.232-78.114-77.825c-44.29-0.617-80.387,35.101-80.387,79.249c0,21.163,8.295,40.389,21.811,54.604&#10;&#9;&#9;&#9;&#9;&#9;&#9;&#9;&#9;c14.99,15.765,23.037,36.886,23.037,58.64v1.435c0,19.926-7.184,39.184-20.234,54.242l-5.832,6.729&#10;&#9;&#9;&#9;&#9;&#9;&#9;&#9;&#9;c-2.719,3.137-2.626,7.854,0.277,10.821c6.707,6.852,22.89,17.034,59.872,17.094v0.002c0.055,0,0.108-0.001,0.163-0.001&#10;&#9;&#9;&#9;&#9;&#9;&#9;&#9;&#9;c0.055,0,0.108,0.001,0.163,0.001v-0.002c36.982-0.06,53.165-10.242,59.872-17.094c2.904-2.967,2.996-7.684,0.277-10.821&#10;&#9;&#9;&#9;&#9;&#9;&#9;&#9;&#9;l-5.832-6.729c-13.05-15.058-20.234-34.316-20.234-54.242v0C247.355,256.162,255.684,234.474,271.026,218.157z"/>
							<circle style="fill:#FFFFFF;" cx="213.272" cy="160.681" r="47.669"/>
							
								<path style="fill:none;stroke:#0000C9;stroke-width:10;stroke-linecap:round;stroke-linejoin:round;stroke-miterlimit:10;" d="&#10;&#9;&#9;&#9;&#9;&#9;&#9;&#9;&#9;M139.074,191.742c3.771,10.037,9.5,19.116,16.752,26.742c14.99,15.765,23.037,36.886,23.037,58.64v1.435&#10;&#9;&#9;&#9;&#9;&#9;&#9;&#9;&#9;c0,19.926-7.184,39.184-20.234,54.242l-5.832,6.729c-2.719,3.137-2.626,7.854,0.277,10.821&#10;&#9;&#9;&#9;&#9;&#9;&#9;&#9;&#9;c6.707,6.852,22.89,17.034,59.872,17.094v0.002c0.055,0,0.108-0.001,0.163-0.001c0.055,0,0.108,0.001,0.163,0.001v-0.002&#10;&#9;&#9;&#9;&#9;&#9;&#9;&#9;&#9;c36.982-0.06,53.165-10.242,59.872-17.094c2.904-2.967,2.996-7.684,0.277-10.821l-5.832-6.729&#10;&#9;&#9;&#9;&#9;&#9;&#9;&#9;&#9;c-13.05-15.058-20.234-34.316-20.234-54.242v0c0-22.397,8.328-44.085,23.671-60.402c13.635-14.501,21.869-34.138,21.49-55.7&#10;&#9;&#9;&#9;&#9;&#9;&#9;&#9;&#9;c-0.747-42.571-35.541-77.232-78.115-77.825c-11.432-0.159-22.319,2.102-32.179,6.305"/>
						</g>
					</g>
					<g>
						<circle style="fill:#FFFFFF;" cx="133.855" cy="115.373" r="52.811"/>
						<circle style="fill:#FFFFFF;" cx="133.855" cy="115.373" r="36.54"/>
						
							<circle style="fill:none;stroke:#0000C9;stroke-width:10;stroke-linecap:round;stroke-linejoin:round;stroke-miterlimit:10;" cx="133.855" cy="115.373" r="52.811"/>
						
							<polyline style="fill:none;stroke:#6581FC;stroke-width:10;stroke-linecap:round;stroke-linejoin:round;stroke-miterlimit:10;" points="&#10;&#9;&#9;&#9;&#9;&#9;&#9;&#9;121.492,114.444 130.353,123.305 146.217,107.442 &#9;&#9;&#9;&#9;&#9;&#9;"/>
					</g>
				</g>
				<g>
					<path style="fill:#6581FC;" d="M305.611,98.624h-6c-1.105,0-2-0.895-2-2v-6c0-1.105,0.895-2,2-2h6c1.105,0,2,0.895,2,2v6&#10;&#9;&#9;&#9;&#9;&#9;&#9;C307.611,97.729,306.716,98.624,305.611,98.624z"/>
					<path style="fill:#6581FC;" d="M325.114,98.624h-6c-1.105,0-2-0.895-2-2v-6c0-1.105,0.895-2,2-2h6c1.105,0,2,0.895,2,2v6&#10;&#9;&#9;&#9;&#9;&#9;&#9;C327.114,97.729,326.219,98.624,325.114,98.624z"/>
					<path style="fill:#6581FC;" d="M344.618,98.624h-6c-1.105,0-2-0.895-2-2v-6c0-1.105,0.895-2,2-2h6c1.105,0,2,0.895,2,2v6&#10;&#9;&#9;&#9;&#9;&#9;&#9;C346.618,97.729,345.722,98.624,344.618,98.624z"/>
				</g>
				
					<line style="fill:none;stroke:#6581FC;stroke-width:10;stroke-linecap:round;stroke-linejoin:round;stroke-miterlimit:10;" x1="270.44" y1="269" x2="320.947" y2="269"/>
				
					<line style="fill:none;stroke:#6581FC;stroke-width:10;stroke-linecap:round;stroke-linejoin:round;stroke-miterlimit:10;" x1="270.44" y1="287.101" x2="283.443" y2="287.101"/>
				<g>
					
						<circle style="fill:none;stroke:#0000C9;stroke-width:10;stroke-linecap:round;stroke-linejoin:round;stroke-miterlimit:10;" cx="347.057" cy="261.286" r="39.791"/>
					<g>
						
							<line style="fill:none;stroke:#0000C9;stroke-width:10;stroke-linecap:round;stroke-linejoin:round;stroke-miterlimit:10;" x1="356.709" y1="278.582" x2="356.709" y2="243.991"/>
						
							<line style="fill:none;stroke:#0000C9;stroke-width:10;stroke-linecap:round;stroke-linejoin:round;stroke-miterlimit:10;" x1="337.405" y1="278.582" x2="337.405" y2="243.991"/>
					</g>
				</g>
			</g>
		</g>
		<path style="fill:none;stroke:#6581FC;stroke-width:10;stroke-linecap:round;stroke-linejoin:round;stroke-miterlimit:10;" d="&#10;&#9;&#9;&#9;M387.391,449.56h-10c-2.761,0-5-2.239-5-5v-10c0-2.761,2.239-5,5-5h10c2.761,0,5,2.239,5,5v10&#10;&#9;&#9;&#9;C392.391,447.322,390.152,449.56,387.391,449.56z"/>
		<path style="fill:none;stroke:#6581FC;stroke-width:10;stroke-linecap:round;stroke-linejoin:round;stroke-miterlimit:10;" d="&#10;&#9;&#9;&#9;M478.974,72.562h-10c-2.761,0-5-2.239-5-5v-10c0-2.761,2.239-5,5-5h10c2.761,0,5,2.239,5,5v10&#10;&#9;&#9;&#9;C483.974,70.323,481.736,72.562,478.974,72.562z"/>
		<path style="fill:none;stroke:#6581FC;stroke-width:10;stroke-linecap:round;stroke-linejoin:round;stroke-miterlimit:10;" d="&#10;&#9;&#9;&#9;M74.731,348.32h-10c-2.761,0-5-2.239-5-5v-10c0-2.761,2.239-5,5-5h10c2.761,0,5,2.239,5,5v10&#10;&#9;&#9;&#9;C79.731,346.082,77.492,348.32,74.731,348.32z"/>
		<g>
			<g>
				<path style="fill:none;stroke:#6581FC;stroke-width:10;stroke-linecap:round;stroke-linejoin:round;stroke-miterlimit:10;" d="&#10;&#9;&#9;&#9;&#9;&#9;M115.005,249.37h1.996c4.418,0,8-3.582,8-8v-1.996v1.996c0,4.418,3.582,8,8,8h1.996h-1.996c-4.418,0-8,3.582-8,8v1.996v-1.996&#10;&#9;&#9;&#9;&#9;&#9;c0-4.418-3.582-8-8-8H115.005z"/>
			</g>
		</g>
		<g>
			<g>
				<path style="fill:none;stroke:#6581FC;stroke-width:10;stroke-linecap:round;stroke-linejoin:round;stroke-miterlimit:10;" d="&#10;&#9;&#9;&#9;&#9;&#9;M73.491,213.279h1.996c4.418,0,8-3.582,8-8v-1.996v1.996c0,4.418,3.582,8,8,8h1.996h-1.996c-4.418,0-8,3.582-8,8v1.996v-1.996&#10;&#9;&#9;&#9;&#9;&#9;c0-4.418-3.582-8-8-8H73.491z"/>
			</g>
		</g>
	</g>
</g>
<g>
</g>
<g>
</g>
<g>
</g>
<g>
</g>
<g>
</g>
<g>
</g>
<g>
</g>
<g>
</g>
<g>
</g>
<g>
</g>
<g>
</g>
<g>
</g>
<g>
</g>
<g>
</g>
<g>
</g>
</svg>