<svg width="43" height="44" viewBox="0 0 43 44" fill="none" xmlns="http://www.w3.org/2000/svg">
<path d="M20.1129 0H22.8871L24.1875 0.176L25.748 0.704L26.9617 1.32L28.2621 2.288L29.2157 3.432L29.3891 3.696L30.8629 3.96L31.9899 4.576L33.1169 5.72L33.8105 6.952L34.0706 7.744L34.1573 8.272V9.768L33.8972 10.824L33.8105 15.048L33.2903 15.84L32.7702 16.104H31.8165L31.3831 18.392L30.9496 20.064L30.256 21.736L29.3891 23.056L28.2621 24.464L28.1754 24.552V27.72L28.6089 28.512L29.4758 28.864L32.0766 29.392L33.2903 29.568L35.1109 30.096L36.498 30.8L37.8851 31.68L39.0121 32.736L39.619 33.352L40.5726 34.672L41.3528 36.168L41.873 37.664L43 42.064V42.856L42.5665 43.736L41.9597 44H40.8327L40.3125 43.648L39.9657 43.296L39.7056 42.328L39.4456 41.008L38.752 38.368L38.3185 37.224L38.0585 36.696V36.52H37.8851L37.2782 35.64L36.498 34.76L35.8044 34.144L35.631 34.056L35.5444 42.856L35.1109 43.736L34.504 44H33.377L32.8569 43.648L32.5101 43.296L32.4234 42.68V32.736L30.5161 32.384V34.056L30.256 35.376L29.8226 36.52L29.0423 37.752L28.2621 38.72L27.3952 39.424L26.1815 40.128L24.9677 40.48L21.8468 41.536H21.1532L18.0323 40.48L16.6452 40.04L15.6048 39.424L14.7379 38.72L13.871 37.664L13.0907 36.344L12.744 35.464L12.4839 34.232V32.384L10.5766 32.736V42.68L10.4032 43.384L9.79637 43.912L9.62298 44H8.49597L7.88911 43.648L7.54234 43.12L7.45565 42.856L7.36895 34.056L6.93548 34.32L6.50202 34.76L5.89516 35.376L5.11492 36.432L4.42137 37.84L3.90121 39.688L3.29435 42.064L3.12097 42.944L2.77419 43.648L2.34073 43.912L2.16734 44H1.04032L0.520161 43.736L0.346774 43.384H0.173387L0 42.944V42.064L1.21371 37.312L1.90726 35.64L2.60081 34.408L3.46774 33.264L4.68145 32.032L5.89516 31.152L6.7621 30.624L8.14919 30.008L9.70968 29.568L11.7903 29.216L13.871 28.776L14.3911 28.512L14.8246 27.72V24.552L14.131 23.76L13.1774 22.44L12.4839 21.208L11.877 19.536L11.1835 16.28V16.104H10.2298L9.53629 15.664L9.18952 15.048L9.10282 10.824L8.84274 9.768V8.272L9.10282 7.216L9.70968 5.984L10.4899 5.104L11.2702 4.4L12.1371 3.96L13.6109 3.696L14.3044 2.816L14.9113 2.112L16.2117 1.232L17.252 0.704L18.7258 0.176L20.1129 0ZM20.8065 3.08L18.8125 3.432L17.7722 3.96L16.6452 4.84L16.125 5.544L15.5181 6.424L15.0847 6.688L14.9113 6.776L13.6109 6.864L12.744 7.216L12.2238 7.832L12.1371 8.184H30.8629L30.6895 7.744L30.256 7.216L29.3891 6.864L28.0887 6.776L27.3952 6.336L26.7016 5.28L26.1815 4.664L24.9677 3.784L24.1875 3.432L22.2802 3.08H20.8065ZM12.2238 11.352V13.024H30.7762V11.352H12.2238ZM14.3911 16.104L14.4778 16.896L14.8246 18.48L15.3448 19.888L16.0383 21.12L17.0786 22.352L17.5988 22.704L18.0323 23.144L19.7661 24.288L20.4597 24.64L21.3266 24.816L22.1935 24.728L23.0605 24.376L24.4476 23.496L25.4879 22.704L26.2681 22L27.1351 20.856L27.8286 19.536L28.2621 18.216L28.6089 16.456V16.104H14.3911ZM18.0323 26.928L17.8589 28.336L17.5121 29.48L16.9052 30.36L16.2984 30.976L15.5181 31.504V33.44L15.7782 34.672L16.2117 35.552L16.8185 36.344L17.5121 36.872L18.7258 37.4L21.3266 38.28L21.9335 38.192L24.9677 37.136L25.748 36.696L26.6149 35.816L27.2218 34.584L27.3952 33.968L27.4819 33.176V31.504L26.5282 30.8L25.9214 30.184L25.4012 29.304L25.0544 27.808L24.9677 26.928L23.494 27.544L22.3669 27.808H20.7198L19.506 27.544L18.4657 27.104L18.0323 26.928Z" fill="white"/>
</svg>
