<svg width="61" height="61" viewBox="0 0 61 61" fill="none" xmlns="http://www.w3.org/2000/svg">
<path d="M30.5 0C47.3451 0 61 13.6549 61 30.5C61 47.3451 47.3451 61 30.5 61C13.6549 61 0 47.3451 0 30.5C0 13.6549 13.6549 0 30.5 0ZM30.5 6.1C24.0287 6.1 17.8225 8.67071 13.2466 13.2466C8.67071 17.8225 6.1 24.0287 6.1 30.5C6.1 36.9713 8.67071 43.1775 13.2466 47.7534C17.8225 52.3293 24.0287 54.9 30.5 54.9C36.9713 54.9 43.1775 52.3293 47.7534 47.7534C52.3293 43.1775 54.9 36.9713 54.9 30.5C54.9 24.0287 52.3293 17.8225 47.7534 13.2466C43.1775 8.67071 36.9713 6.1 30.5 6.1ZM30.5 12.2C31.247 12.2001 31.9681 12.4744 32.5263 12.9708C33.0846 13.4672 33.4412 14.1512 33.5286 14.8931L33.55 15.25V29.2373L41.8063 37.4936C42.3534 38.0425 42.6709 38.779 42.6946 39.5536C42.7182 40.3281 42.4462 41.0826 41.9337 41.6638C41.4212 42.2451 40.7067 42.6094 39.9353 42.6829C39.1638 42.7564 38.3934 42.5335 37.7803 42.0595L37.4936 41.8063L28.3437 32.6563C27.8696 32.1819 27.5652 31.5645 27.4774 30.8995L27.45 30.5V15.25C27.45 14.4411 27.7713 13.6653 28.3433 13.0933C28.9153 12.5213 29.6911 12.2 30.5 12.2Z" fill="#2949FF"/>
</svg>
