<?xml version="1.0" encoding="UTF-8"?>
<svg id="Layer_1" data-name="Layer 1" xmlns="http://www.w3.org/2000/svg" viewBox="0 0 164.84 200">
  <defs>
    <style>
      .cls-1 {
        fill: #fff;
        stroke-width: 0px;
      }
    </style>
  </defs>
  <path class="cls-1" d="M98.82,109.21c1.01,3.92.47,7.92-1.95,11.65-.24.37-.32.89-.34,1.34-.04,1.28-.02,2.55-.02,3.83,0,2.62.03,2.54,2.51,3.43,4.3,1.53,8.3,3.51,10.63,7.78.21.38.94.65,1.43.67,2.34.07,4.68.03,7.02.03,3.33,0,4.43,1.12,4.43,4.52,0,5.43,0,10.85,0,16.28v21.23c0,.57,0,1.14,0,1.68,5.2.68,5.27.75,5.27,5.97,0,2.66,0,5.32,0,7.98,0,3.37-1.01,4.39-4.34,4.39-22.29,0-44.59,0-66.88,0-5.16,0-10.32,0-15.48,0-2.75,0-4.09-1.34-4.09-4.1,0-3.19,0-6.38,0-9.58,0-3.44,1-4.46,4.42-4.51.26,0,.53-.03,1.01-.05v-1.87c0-12.66,0-25.33,0-37.99,0-2.8,1.15-3.96,3.95-3.97,2.45,0,4.9.03,7.34-.03.5-.01,1.22-.26,1.44-.63,2.41-4.18,6.34-6.25,10.64-7.84.79-.29,1.59-.52,2.5-.82,0-2.26.03-4.54-.02-6.82,0-.44-.24-.91-.47-1.3-1.88-3.28-2.69-6.73-1.92-10.52.11-.52-.14-1.43-.52-1.67-8.1-5.02-13.97-12.12-19.02-20.03-.32-.5-.77-1.07-1.29-1.26-7.46-2.66-14.12-6.74-20.31-11.6-7.98-6.25-14.8-13.54-19.45-22.63C1.36,45.15-.93,37.06.36,28.43,1.8,18.88,8.73,11.24,18.24,8.82c2.38-.61,4.9-.66,7.58-1,0-.68-.01-1.56,0-2.45.04-2.77,2-4.95,4.74-5.25.63-.07,1.27-.12,1.91-.12C65.82,0,99.18,0,132.54,0c1.96,0,3.95.12,5.13,1.9.72,1.09,1.08,2.45,1.44,3.74.19.69.03,1.48.03,2.29,1.83.16,3.61.24,5.37.5,9.99,1.47,18.2,9.45,19.87,19.44,1.37,8.18-.46,15.9-3.96,23.25-5.71,11.97-14.84,20.89-25.68,28.22-4.62,3.13-9.54,5.69-14.76,7.69-.65.25-1.17.98-1.64,1.57-3.2,4.08-6.12,8.42-9.64,12.21-2.85,3.07-6.41,5.49-9.89,8.4ZM32.4,6.76c.14,2.87.3,5.62.42,8.37.41,9.5,1.63,18.9,3.57,28.2,3.01,14.42,7.53,28.29,15.3,40.93,4.17,6.79,9.08,12.95,15.81,17.42.7.47,1.65.78,2.48.79,8.35.06,16.7.05,25.06,0,.74,0,1.56-.28,2.19-.68,4.47-2.79,8.04-6.57,11.24-10.68,5.35-6.85,9.33-14.48,12.55-22.54,4.02-10.06,6.9-20.44,8.54-31.12,1.06-6.91,1.75-13.88,2.46-20.83.33-3.25.34-6.53.49-9.86H32.4ZM115.81,144.56H49.23v37.12h66.58v-37.12ZM138.81,14.88c-1.31,21.67-5.26,42.69-14.51,62.85.88-.46,1.44-.71,1.97-1.02,7.38-4.3,14.09-9.44,19.73-15.89,6.55-7.5,11.1-15.84,12.14-26.02,1.17-11.55-7.93-21.22-19.33-19.92ZM26.07,14.93c-9.47-1.38-18.96,5.87-19.39,16.65-.25,6.11,1.28,11.9,4.03,17.29,6.6,12.92,17.2,21.78,29.94,29.01-9.3-20.23-13.25-41.3-14.57-62.95ZM43.77,193.18h77.44v-4.6H43.77v4.6ZM91.75,109.02c-5.97,0-11.92-.01-17.88.04-.38,0-.95.44-1.09.8-.78,2.04-.89,4.1.21,6.18,3.18,0,6.37,0,9.56,0s6.35,0,9.41,0c1.01-2.52.83-4.75-.21-7.02ZM101.09,137.85c-8.6-5.95-29.46-5.71-37.19,0h37.19ZM75.04,127.04h14.83v-4.19h-14.83v4.19Z"/>
  <path class="cls-1" d="M126.45,18.22c-1.17,7.42-2.2,14.86-3.54,22.25-1.74,9.6-4.62,18.87-8.66,27.76-3.53,7.77-7.86,15.03-14.01,21.06-1.06,1.04-2.19,2.01-3.37,2.9-1.31.99-3.09.57-4.19-.85-1.12-1.44-1.09-3.47.17-4.44,5.94-4.58,9.92-10.7,13.31-17.23,5.86-11.28,9.27-23.37,11.28-35.86.87-5.38,1.34-10.83,1.97-16.25.22-1.91,1.59-3.01,3.66-2.87,2,.14,3.05,1.35,3.38,3.52Z"/>
  <path class="cls-1" d="M82.45,150.38c7.87,0,15.74,0,23.61,0,2.71,0,3.85,1.16,3.86,3.88,0,5.96,0,11.91,0,17.87,0,2.62-1.27,3.89-3.9,3.89-15.69,0-31.38,0-47.07,0-2.76,0-4.06-1.33-4.06-4.12,0-5.9,0-11.81,0-17.71,0-2.58,1.22-3.8,3.79-3.81,7.92,0,15.85,0,23.77,0ZM61.65,169.23h41.74c0-3.58-.07-7.03.03-10.49.04-1.46-.36-1.88-1.85-1.87-12.82.06-25.64.03-38.46.03h-1.47v12.32Z"/>
  <path class="cls-1" d="M94.35,62.54c-1,1.81-2.47,3.33-4.41,4.54-1.94,1.21-4.27,1.9-6.98,2.07v5.07h-3.38v-5.07c-3.8-.33-6.88-1.55-9.26-3.66-2.38-2.11-3.59-4.79-3.63-8.04h6.07c.17,1.75.82,3.28,1.97,4.57,1.15,1.29,2.76,2.11,4.85,2.44v-15.64c-2.8-.71-5.05-1.44-6.76-2.19-1.71-.75-3.17-1.92-4.38-3.5-1.21-1.59-1.81-3.71-1.81-6.38,0-3.38,1.18-6.17,3.54-8.39,2.36-2.21,5.5-3.44,9.42-3.69v-5.19h3.38v5.19c3.55.29,6.4,1.43,8.57,3.41,2.17,1.98,3.42,4.56,3.75,7.73h-6.07c-.21-1.46-.86-2.78-1.94-3.97-1.09-1.19-2.52-1.97-4.32-2.35v15.27c2.75.71,5,1.43,6.73,2.16,1.73.73,3.19,1.89,4.38,3.47,1.19,1.59,1.78,3.73,1.78,6.45,0,2-.5,3.91-1.5,5.73ZM74.26,41.11c1.21,1.09,2.98,1.98,5.32,2.69v-14.46c-2.17.21-3.9.91-5.19,2.1-1.29,1.19-1.94,2.85-1.94,4.98s.6,3.61,1.81,4.69ZM88.25,62.07c1.27-1.38,1.91-3.02,1.91-4.94,0-2.04-.63-3.62-1.88-4.72-1.25-1.11-3.03-1.99-5.32-2.66v14.77c2.25-.25,4.01-1.06,5.29-2.44Z"/>
</svg>