<svg width="62" height="63" viewBox="0 0 62 63" fill="none" xmlns="http://www.w3.org/2000/svg">
<path d="M43.2455 6.57373L43.8495 6.69453L46.9902 20.9487L47.5942 23.727V24.0894L42.8831 25.1766H42.2791L41.6751 23.0022L40.8295 21.5526L39.7423 20.3447L38.172 19.3783L36.7224 18.8951L36.1184 18.7743H34.3064L32.4945 19.2575L31.0449 20.1031L29.9577 21.0695L28.8705 22.7606L28.3873 24.2102L28.2666 24.935V26.6262L28.6289 28.3173L25.4882 29.0421L23.797 29.4045H22.8307L22.1059 29.0421L21.6227 28.4381L20.8979 25.4182L18.4819 14.4256V12.976L19.0859 12.1304L19.9315 11.768L36.2392 8.1441L43.2455 6.57373Z" fill="white"/>
<path d="M32.7362 32.4244L34.5482 32.7868H35.8769L37.6889 32.4244L39.3801 37.3771L41.3128 43.0546L43.004 48.0073L45.0576 54.0472L46.9903 59.7247L47.1111 59.9663V61.2951L46.7487 61.8991L46.0239 62.5031H44.5744L43.7288 61.8991L43.004 59.9663L40.9504 53.9264L39.2593 48.9737L37.2057 42.9338L37.0849 61.1743L36.7225 61.8991L36.1185 62.3823L35.8769 62.5031H34.5482L33.8234 62.0199L33.461 61.5367L33.3402 61.1743L33.2194 43.0546L31.1658 49.0945L29.2331 54.772L27.5419 59.7247L26.6963 61.8991L26.0923 62.3823L25.8507 62.5031H24.4011L23.5556 61.7783L23.314 61.2951V60.0871L26.5755 50.4233L28.2667 45.4706L30.3202 39.4307L32.0114 34.478L32.7362 32.4244Z" fill="white"/>
<path d="M54.8422 0.654663H56.2918L57.1373 1.25865L57.4997 2.10424L60.7613 16.9624L61.8485 21.9151V23.3646L61.3653 24.0894L60.3989 24.5726L59.3117 24.4518L58.5869 23.9686L58.2245 23.3646L57.9829 22.3983V21.7943L51.4599 23.2438H50.9767L50.0103 19.0159L47.2319 6.33216V5.72817L50.7351 4.88258L53.5134 4.2786H53.9966L53.755 3.19142V1.86264L54.2382 1.13785L54.8422 0.654663Z" fill="white"/>
<path d="M15.0997 15.8752L15.3413 15.996L17.8781 27.4718V27.7134L13.167 28.8006L6.64388 30.2502L6.52308 30.371L6.64388 30.975V32.0621L6.16068 32.9077L5.3151 33.3909H4.34872L3.62393 33.0285L3.01994 32.3037L2.17436 28.6798L0 18.7744V17.3248L0.483191 16.6L0.966382 16.2376L1.32878 16.1168H2.29516L3.01994 16.4792L3.50313 17.0832L3.86553 18.2912L4.83191 18.1704L15.0997 15.8752Z" fill="white"/>
<path d="M34.5483 22.1566H35.8771L36.9643 22.519L38.1722 23.6062L38.6554 24.5726L38.7762 25.0558V26.5053L38.293 27.7133L37.4475 28.6797L36.2395 29.2837L35.6355 29.4045H34.7899L33.5819 29.0421L32.6156 28.3173L32.1324 27.7133L31.77 26.9885L31.6492 26.3845V25.0558L32.1324 23.8478L32.9779 22.8814L33.7027 22.3982L34.5483 22.1566Z" fill="white"/>
</svg>
